<svg xmlns="http://www.w3.org/2000/svg" width="406.974" height="512" viewBox="0 0 959.18272 1206.7137"><path d="M933.398 1160.302c0 11.428-9.197 20.628-20.628 20.628h-866.359c-11.428 0-20.628-9.2-20.628-20.628v-1113.89c0-11.428 9.2-20.628 20.628-20.628h866.359c11.431 0 20.628 9.2 20.628 20.628v1113.89z" fill="#fff"/><path d="M912.771 0h-866.359c-25.712 0-46.412 20.7-46.412 46.412v1113.89c0 25.712 20.7 46.412 46.412 46.412h866.359c25.714 0 46.412-20.7 46.412-46.412v-1113.89c0-25.712-20.699-46.412-46.412-46.412zm20.628 1160.302c0 11.428-9.197 20.628-20.628 20.628h-866.359c-11.428 0-20.628-9.2-20.628-20.628v-1113.89c0-11.428 9.2-20.628 20.628-20.628h866.359c11.431 0 20.628 9.2 20.628 20.628v1113.89zM814.095 312.109c6.896-1.642 13.284-4.106 19.167-7.391 13.448-7.386 23.619-17.236 30.512-29.55 6.893-12.314 10.34-26.765 10.34-43.351 0-16.421-3.447-30.666-10.34-42.734-6.895-12.068-16.895-21.796-30.004-29.182-12.443-6.9-25.893-10.35-40.353-10.35h-54.477v165.021h54.477c6.891 0 13.784-.82 20.677-2.462zm-44.382-132.997h23.705c9.246 0 17.735 2.135 25.468 6.404 8.409 4.596 14.675 10.669 18.791 18.223 4.117 7.555 6.177 16.913 6.177 28.077 0 22.329-8.659 37.927-25.976 46.797-7.396 4.269-15.552 6.404-24.456 6.404h-23.707l-.002-105.905zM542.095 149.55h-123.32v165.021h126.351v-29.554h-95.58v-45.075h50.432v-30.291h-50.432v-30.539h92.549zM180.899 280.707c-6.893 4.022-15.717 6.032-26.479 6.032-9.579 0-17.901-1.642-24.963-4.928-7.063-3.284-13.786-8.537-20.177-15.758l-24.212 18.467c9.588 10.839 19.969 18.844 31.148 24.014 11.18 5.172 24.086 7.758 38.712 7.758 7.903 0 15.555-.944 22.951-2.83 7.398-1.886 14.038-4.637 19.918-8.249 15.807-9.03 23.712-21.92 23.712-38.671 0-9.03-2.185-17.197-6.56-24.504-4.37-7.305-10.342-12.847-17.91-16.626-4.706-2.3-10.842-4.599-18.41-6.896-7.568-2.297-16.984-4.596-28.245-6.896-5.211-1.147-9.541-2.295-12.985-3.446-3.447-1.15-6.178-2.423-8.2-3.819-2.02-1.396-3.447-2.956-4.287-4.678-.838-1.723-1.259-3.736-1.259-6.035 0-5.258 2.393-9.403 7.185-12.439 4.789-3.036 11.472-4.555 20.052-4.555 16.306 0 29.752 5.419 40.344 16.258l22.449-19.708c-8.574-8.703-18.032-15.108-28.372-19.212-10.342-4.102-21.816-6.155-34.42-6.155-8.579 0-16.441 1.109-23.586 3.325-7.144 2.218-13.238 5.337-18.281 9.358-5.046 4.022-8.995 8.824-11.855 14.408-2.857 5.584-4.287 11.825-4.287 18.72 0 5.251.881 10.258 2.647 15.023 1.762 4.763 4.413 9.033 7.942 12.812 3.531 3.939 7.776 7.098 12.738 9.477 4.964 2.38 11.814 4.558 20.557 6.532l8.068 2.457 7.819 1.728 7.819 2.218c3.863.817 7.434 1.8 10.713 2.951 3.277 1.15 6.429 2.302 9.456 3.454 7.06 3.447 10.591 8.454 10.591 15.017.008 6.243-3.437 11.375-10.332 15.396zM286.012 249.795h48.165c6.388 0 11.811-.411 16.266-1.233 4.456-.822 9.121-2.545 13.995-5.172 4.035-2.134 7.654-4.802 10.845-8.005 3.195-3.203 5.926-6.69 8.197-10.466 2.271-3.776 3.995-7.799 5.17-12.068 1.175-4.269 1.761-8.538 1.761-12.807 0-9.36-2.309-17.898-6.934-25.615-4.624-7.716-10.967-13.71-19.038-17.979-4.875-2.625-9.54-4.432-13.995-5.419-4.456-.987-9.878-1.48-16.266-1.48h-78.934v165.021h30.77v-64.777zm0-70.683h49.173c7.568 0 13.621 1.889 18.159 5.664 4.538 3.776 6.807 8.867 6.807 15.269 0 6.073-2.269 10.957-6.807 14.652-4.538 3.696-10.591 5.543-18.159 5.543h-49.173v-41.128zM702.179 149.55h-123.32v165.021h126.35v-29.554h-95.58v-45.075h50.434v-30.291h-50.434v-30.539h92.55zM599.787 397.081h29.555v165.021h-29.555zM733.755 562.102v-135.954h47.536v-29.067h-123.889v29.067h47.536v135.954zM301.293 562.102v-25.367h-93.846v-139.654h-29.555v165.021zM431.128 461.368l48.031 100.734 48.519-100.734v100.734h29.068v-165.021h-29.068l-48.519 97.78-48.031-97.78h-29.06v165.021h29.06zM329.427 397.081h29.555v165.021h-29.555zM392.271 644.612h-72.041l-254.917 262.32v66.5h254.917v83.732h72.041v-83.732h60.957v-66.5h-60.957v-262.32zm-72.045 262.32h-160.72l160.72-165.022v165.022zM853.86 704.038c-13.962-19.908-31.819-36.024-53.572-48.34-21.756-12.314-48.028-18.467-78.82-18.469-30.364.002-56.429 6.058-78.188 18.172-21.763 12.114-39.72 28.019-53.883 47.719-14.162 19.7-24.629 42.377-31.397 68.033-6.772 25.656-10.157 52.031-10.157 79.127 0 27.096 3.282 53.472 9.847 79.127 6.566 25.656 16.827 48.539 30.79 68.654 13.961 20.113 31.922 36.222 53.879 48.33 21.961 12.108 48.333 18.16 79.109 18.16 31.205 0 57.685-6.259 79.441-18.781 21.753-12.522 39.504-29.042 53.26-49.559 13.754-20.522 23.812-43.608 30.167-69.264s9.535-51.825 9.537-78.509c-.002-25.869-3.182-51.422-9.537-76.665-6.355-25.247-16.517-47.825-30.476-67.736zm-60.35 247.531c-8.619 12.522-18.982 22.171-31.09 28.938-12.108 6.772-25.758 10.155-40.953 10.155-31.191 0-55.615-12.21-73.263-36.631-17.651-24.421-26.479-59.62-26.479-105.595 0-15.195 1.748-30.898 5.236-47.108 3.487-16.21 9.131-30.983 16.931-44.325 7.797-13.342 18.058-24.324 30.788-32.953 12.728-8.624 28.324-12.936 46.79-12.938 31.205.002 55.427 12.319 72.664 36.955 17.109 24.451 25.717 58.213 25.846 101.26-.064 20.994-2.31 40.097-6.764 57.297-4.518 17.443-11.086 32.425-19.705 44.945z"/></svg>