<svg xmlns="http://www.w3.org/2000/svg" width="512" height="511.913" viewBox="0 0 1444.9779 1444.7327"><path d="M1424.295 672.242l-651.579-651.559c-27.577-27.578-72.712-27.578-100.269 0l-651.779 651.559c-27.557 27.557-27.557 72.672 0 100.249l651.779 651.559c27.557 27.578 72.692 27.578 100.269 0l651.579-651.559c27.577-27.578 27.577-72.692 0-100.249" fill="#ffd033"/><path d="M1408.602 682.603l-646.208-646.208c-21.926-21.866-57.7-21.866-79.586 0l-646.428 646.208c-21.866 21.866-21.866 57.66 0 79.526l646.428 646.208c21.886 21.866 57.66 21.866 79.586 0l646.208-646.208c21.866-21.866 21.866-57.66 0-79.526" fill-rule="evenodd"/><path d="M1388.4 702.485l-645.927-645.907c-10.923-10.923-28.82-10.923-39.743 0l-646.148 645.907c-10.923 10.923-10.923 28.82 0 39.763l646.148 645.887c10.923 10.943 28.82 10.943 39.743 0l645.927-645.887c10.922-10.943 10.922-28.84 0-39.763" fill="#ffd033" fill-rule="evenodd"/><path d="M689.663 604.32c-5.973 19.942-12.025 39.903-18.017 59.865-6.774 22.467-24.772 61.989-53.792 34.352-7.897-7.516-12.005-19.22-16.755-28.8-9.28-18.899-18.619-37.779-27.939-56.698-38.601-78.343-77.241-156.687-115.861-235.03l262.567-.023 62.11-.017c11.163 0 23.83-1.203 34.632 1.944 17.336 5.01 28.159 25.092 16.194 41.106-5.552 7.496-13.127 14.31-19.42 21.284-14.831 16.354-29.602 32.708-44.373 49.062 60.406 27.437 116.363 67.26 157.849 119.389 37.578-37.558 75.157-75.137 112.715-112.695 6.895-6.914 13.829-13.829 20.763-20.783 4.71-4.71 7.014 1.704 11.324 5.992 18.839 18.859 37.678 37.679 56.538 56.498-33.89 33.871-67.741 67.741-101.612 101.592-16.775 16.775-33.53 33.51-50.245 50.285-8.238 8.157 4.068 33.49 6.333 44.894 6.614 33.269 5.712 67.3 5.672 101.031-.119 60.626-.199 121.253-.261 181.899-.057 15.733-.08 31.466-.08 47.198 0 .661-51.588.32-55.255.32h-81.671c-9.6 0-4.93-17.176-4.93-25.092 0-59.805 0-119.609-.057-179.434-.057-33.73 2.264-68.563-3.988-101.913-14.45-77.622-88.043-122.596-152.458-156.226" fill-rule="evenodd"/></svg>