<svg xmlns="http://www.w3.org/2000/svg" width="380.773" height="512" viewBox="0 0 380.7731 512"><path d="M378.622 499.092c0 5.942-4.815 10.756-10.756 10.756h-354.958c-5.942 0-10.756-4.815-10.756-10.756v-486.185c0-5.942 4.815-10.756 10.756-10.756h354.958c5.942 0 10.756 4.815 10.756 10.756v486.185z" fill="#fff"/><path d="M367.866 0h-354.958c-7.119 0-12.908 5.789-12.908 12.908v486.185c0 7.119 5.789 12.908 12.908 12.908h354.958c7.119 0 12.908-5.789 12.908-12.908v-486.185c0-7.116-5.789-12.908-12.908-12.908zm-354.958 4.303h354.958c4.746 0 8.605 3.859 8.605 8.605v171.864h-372.168v-171.864c0-4.744 3.859-8.605 8.605-8.605zm354.958 503.395h-354.958c-4.746 0-8.605-3.862-8.605-8.605v-98.685h372.168v98.685c0 4.744-3.859 8.605-8.605 8.605z" fill="#231f20"/><path d="M190.387 382.025l-45.828-89.437 45.828-89.434 45.828 89.434-45.828 89.437zm-31.325-89.437l31.325 61.135 31.325-61.135-31.325-61.13-31.325 61.13z" fill="#fff"/><path d="M32.757 80.896v-45.232h15.362c3.864 0 6.671.404 8.42 1.218 1.751.813 3.154 2.257 4.206 4.335 1.05 2.078 1.577 4.453 1.577 7.127 0 3.395-.796 6.196-2.392 8.407-1.592 2.211-3.98 3.606-7.151 4.18 1.579 1.153 2.883 2.418 3.909 3.795 1.028 1.379 2.412 3.827 4.154 7.344l4.417 8.824h-8.732l-5.275-9.842c-1.874-3.517-3.158-5.735-3.846-6.65-.691-.914-1.422-1.542-2.196-1.882-.774-.34-1.999-.51-3.674-.51h-1.48v18.884h-7.297zm7.297-26.103h5.4c3.502 0 5.69-.185 6.559-.555.873-.37 1.555-1.007 2.048-1.912.493-.904.74-2.035.74-3.395 0-1.523-.325-2.751-.972-3.687-.652-.936-1.568-1.527-2.751-1.775-.589-.103-2.366-.155-5.324-.155h-5.697v11.479zM69.202 80.896v-45.232h26.803v7.652h-19.503v10.029h18.15v7.62h-18.15v12.312h20.198v7.62h-27.497zM101.036 66.179l7.103-.865c.426 2.984 1.295 5.174 2.601 6.572 1.306 1.398 3.07 2.097 5.29 2.097 2.349 0 4.122-.622 5.314-1.867 1.192-1.243 1.788-2.7 1.788-4.365 0-1.069-.252-1.979-.753-2.732-.501-.751-1.379-1.403-2.627-1.96-.854-.37-2.803-1.028-5.845-1.975-3.911-1.213-6.658-2.704-8.235-4.475-2.218-2.489-3.33-5.522-3.33-9.102 0-2.304.523-4.46 1.566-6.465 1.046-2.005 2.551-3.532 4.513-4.582 1.966-1.048 4.337-1.573 7.116-1.573 4.535 0 7.951 1.246 10.246 3.732 2.293 2.489 3.496 5.813 3.614 9.967l-7.301.402c-.314-2.326-.981-3.995-2.011-5.015-1.028-1.02-2.566-1.527-4.621-1.527-2.121 0-3.782.544-4.982 1.635-.772.699-1.157 1.635-1.157 2.807 0 1.071.361 1.986 1.086 2.747.921.966 3.156 1.975 6.705 3.023 3.55 1.05 6.176 2.134 7.878 3.255s3.033 2.653 3.995 4.597c.962 1.943 1.441 4.346 1.441 7.205 0 2.592-.577 5.019-1.727 7.282-1.149 2.263-2.777 3.943-4.883 5.045-2.104 1.101-4.724 1.652-7.865 1.652-4.569 0-8.08-1.321-10.53-3.965-2.45-2.642-3.911-6.493-4.389-11.552zM144.707 80.896v-37.58h-10.726v-7.652h28.728v7.652h-10.703v37.58h-7.299zM167.441 80.896v-45.232h15.362c3.866 0 6.673.404 8.422 1.218 1.749.813 3.152 2.257 4.204 4.335 1.052 2.078 1.577 4.453 1.577 7.127 0 3.395-.796 6.196-2.39 8.407-1.594 2.211-3.98 3.606-7.151 4.18 1.577 1.153 2.881 2.418 3.907 3.795 1.028 1.379 2.414 3.827 4.156 7.344l4.414 8.824h-8.73l-5.275-9.842c-1.874-3.517-3.158-5.735-3.849-6.65-.688-.914-1.42-1.542-2.194-1.882-.774-.34-1.999-.51-3.677-.51h-1.48v18.884h-7.297zm7.299-26.103h5.402c3.502 0 5.688-.185 6.559-.555.871-.37 1.553-1.007 2.048-1.912.493-.904.74-2.035.74-3.395 0-1.523-.325-2.751-.975-3.687-.652-.936-1.568-1.527-2.749-1.775-.589-.103-2.369-.155-5.327-.155h-5.697v11.479zM203.664 80.896v-45.232h7.301v45.232h-7.301zM241.049 64.267l7.075 2.807c-1.084 4.935-2.889 8.603-5.413 10.999-2.523 2.397-5.725 3.595-9.605 3.595-4.799 0-8.745-2.052-11.836-6.155-3.091-4.102-4.634-9.713-4.634-16.831 0-7.529 1.553-13.374 4.66-17.541 3.106-4.165 7.192-6.247 12.256-6.247 4.421 0 8.013 1.635 10.776 4.907 1.644 1.932 2.876 4.709 3.698 8.33l-7.224 2.16c-.426-2.345-1.319-4.197-2.674-5.555-1.357-1.357-3.003-2.035-4.946-2.035-2.678 0-4.853 1.203-6.52 3.61-1.667 2.407-2.502 6.305-2.502 11.694 0 5.718.822 9.79 2.465 12.219 1.646 2.427 3.782 3.64 6.411 3.64 1.938 0 3.61-.77 5.006-2.315 1.396-1.545 2.399-3.971 3.007-7.282zM262.525 80.896v-37.58h-10.726v-7.652h28.728v7.652h-10.703v37.58h-7.299zM285.238 80.896v-45.232h26.805v7.652h-19.505v10.029h18.15v7.62h-18.15v12.312h20.196v7.62h-27.495zM318.894 35.664h13.34c3.007 0 5.303.288 6.88.863 2.119.781 3.937 2.171 5.449 4.165 1.512 1.996 2.663 4.438 3.451 7.329.79 2.889 1.185 6.454 1.185 10.692 0 3.722-.37 6.931-1.112 9.627-.904 3.291-2.194 5.955-3.87 7.992-1.267 1.542-2.977 2.745-5.131 3.61-1.611.639-3.765.957-6.46.957h-13.736v-45.235zm7.299 7.652v29.961h5.449c2.039 0 3.511-.144 4.417-.432 1.183-.37 2.164-.998 2.945-1.882.781-.884 1.418-2.341 1.912-4.367.493-2.024.74-4.787.74-8.285s-.245-6.183-.74-8.054c-.495-1.872-1.185-3.332-2.072-4.382-.888-1.05-2.016-1.758-3.377-2.13-1.02-.288-3.016-.432-5.991-.432h-3.283zM125.522 156.724v-44.862h7.299v37.243h18.152v7.62h-25.452zM188.771 156.724h-7.938l-3.158-10.274h-14.45l-2.986 10.274h-7.742l14.08-45.232h7.719l14.476 45.232zm-13.439-17.896l-4.98-16.784-4.883 16.784h9.864zM192.716 156.724v-45.232h7.103l14.794 30.206v-30.206h6.781v45.232h-7.323l-14.573-29.496v29.496h-6.783zM229.114 156.724v-45.232h26.805v7.652h-19.505v10.029h18.15v7.62h-18.15v12.312h20.196v7.62h-27.495zM121.146 478.576h-10.274l-4.083-11.232h-18.697l-3.862 11.232h-10.018l18.219-49.44h9.988l18.727 49.44zm-17.391-19.559l-6.445-18.348-6.318 18.348h12.763zM126.186 478.576v-49.442h9.446v19.458h18.507v-19.458h9.446v49.44h-9.446v-21.618h-18.507v21.618h-9.446zM173.346 478.576v-49.442h34.685v8.362h-25.239v10.963h23.483v8.332h-23.483v13.458h26.131v8.328h-35.578zM259.115 478.576h-10.274l-4.083-11.232h-18.697l-3.862 11.232h-10.018l18.219-49.44h9.988l18.727 49.44zm-17.391-19.559l-6.445-18.348-6.318 18.348h12.763zM264.093 429.133h17.262c3.894 0 6.858.314 8.902.942 2.743.856 5.094 2.375 7.052 4.554 1.955 2.181 3.446 4.853 4.466 8.013 1.022 3.156 1.532 7.054 1.532 11.686 0 4.068-.48 7.575-1.435 10.522-1.17 3.601-2.84 6.508-5.01 8.736-1.639 1.689-3.851 3.003-6.637 3.945-2.085.697-4.873 1.046-8.36 1.046h-17.774v-49.445zm9.444 8.362v32.753h7.05c2.64 0 4.541-.159 5.712-.475 1.532-.404 2.803-1.089 3.812-2.054 1.009-.966 1.835-2.558 2.472-4.774s.957-5.236.957-9.055c0-3.823-.318-6.761-.957-8.807-.639-2.042-1.532-3.638-2.68-4.787-1.149-1.149-2.605-1.925-4.371-2.328-1.319-.314-3.902-.475-7.753-.475h-4.24z"/></svg>