<svg xmlns="http://www.w3.org/2000/svg" width="428.8" height="512" viewBox="0 0 428.79999 512"><path d="M423.467 496c0 5.892-4.774 10.667-10.667 10.667h-396.8c-5.892 0-10.667-4.774-10.667-10.667v-480c0-5.89 4.774-10.667 10.667-10.667h396.8c5.892 0 10.667 4.777 10.667 10.667v480z" fill="#fff"/><path d="M412.8 512h-396.8c-8.823 0-16-7.177-16-16v-480c0-8.821 7.177-16 16-16h396.8c8.823 0 16 7.179 16 16v480c0 8.821-7.177 16-16 16zm-396.8-501.333c-2.94 0-5.333 2.394-5.333 5.333v480c0 2.942 2.394 5.333 5.333 5.333h396.8c2.942 0 5.333-2.391 5.333-5.333v-480c0-2.94-2.391-5.333-5.333-5.333h-396.8zM231.488 58.423c-48.45 0-87.868 39.418-87.868 87.868v67.104l-47.895-2.251c-1.619 1.626-1.619 4.241 0 5.862l63.883 86.583c1.621 1.619 4.247 1.619 5.862 0l68.713-86.583c1.628-1.623 1.623-4.239 0-5.862l-47.898 2.091v-66.944c0-24.924 20.277-45.201 45.201-45.201s45.201 20.277 45.201 45.201v157.687h42.667v-157.687c0-48.45-39.415-87.868-87.866-87.868z" fill="#2e2c2c"/><g fill="#231f20"><path d="M146.711 416.38c0 7.074-.879 13.402-2.637 18.98-1.758 5.581-4.371 10.315-7.842 14.204-3.471 3.887-7.767 6.854-12.885 8.898-5.12 2.042-11.04 3.066-17.762 3.066-6.635 0-12.422-.868-17.367-2.605-4.943-1.734-9.062-4.384-12.356-7.942-3.294-3.558-5.766-8.083-7.415-13.577-1.647-5.491-2.47-11.996-2.47-19.509 0-6.897.879-13.105 2.635-18.62 1.758-5.513 4.371-10.204 7.844-14.071 3.469-3.868 7.765-6.831 12.885-8.898 5.118-2.065 11.061-3.098 17.828-3.098 6.458 0 12.16.858 17.103 2.571 4.943 1.715 9.073 4.35 12.39 7.908 3.317 3.561 5.822 8.051 7.514 13.478 1.692 5.431 2.537 11.834 2.537 19.215zm-18.189.924c0-4.482-.352-8.557-1.054-12.224-.704-3.669-1.901-6.81-3.593-9.425-1.692-2.613-3.945-4.636-6.756-6.063-2.812-1.427-6.327-2.142-10.545-2.142-4.262 0-7.821.802-10.677 2.404-2.857 1.604-5.163 3.748-6.921 6.428-1.758 2.679-2.999 5.811-3.725 9.391-.725 3.58-1.088 7.371-1.088 11.369 0 4.659.352 8.843 1.056 12.555.702 3.714 1.888 6.889 3.558 9.525 1.67 2.635 3.91 4.646 6.722 6.029 2.812 1.385 6.349 2.078 10.611 2.078 4.262 0 7.821-.791 10.677-2.372 2.857-1.581 5.163-3.733 6.921-6.458 1.756-2.724 2.997-5.901 3.723-9.525.725-3.625 1.09-7.482 1.09-11.569zM231.601 453.95c0 1.011-.175 1.911-.525 2.703-.354.789-.826 1.451-1.419 1.978-.593.527-1.295.913-2.108 1.152-.815.241-1.638.363-2.473.363h-7.379c-1.54 0-2.869-.151-3.989-.461-1.12-.307-2.153-.866-3.098-1.681-.945-.813-1.856-1.911-2.735-3.296-.879-1.382-1.867-3.172-2.965-5.372l-21.222-39.872c-1.231-2.372-2.483-4.932-3.757-7.68-1.276-2.746-2.417-5.414-3.426-8.006h-.132c.175 3.162.307 6.317.397 9.457.087 3.142.132 6.383.132 9.722v44.619c0 .442-.122.836-.363 1.188s-.659.649-1.252.89-1.395.429-2.404.561c-1.011.132-2.308.198-3.889.198-1.538 0-2.812-.066-3.823-.198-1.011-.132-1.803-.318-2.372-.561-.57-.243-.966-.538-1.186-.89-.22-.352-.329-.747-.329-1.188v-76.649c0-2.065.604-3.614 1.813-4.649 1.207-1.03 2.69-1.549 4.448-1.549h9.293c1.67 0 3.074.143 4.218.429 1.143.286 2.163.755 3.066 1.417.9.659 1.747 1.57 2.537 2.735.791 1.165 1.604 2.603 2.438 4.316l16.608 31.172c.966 1.89 1.922 3.746 2.867 5.568.943 1.824 1.856 3.648 2.735 5.47.879 1.824 1.734 3.614 2.571 5.372.834 1.758 1.649 3.516 2.438 5.274h.064c-.13-3.074-.228-6.283-.297-9.623-.066-3.337-.098-6.524-.098-9.555v-40.004c0-.439.132-.836.395-1.188.265-.35.704-.659 1.321-.924.612-.262 1.425-.45 2.438-.559 1.011-.111 2.306-.166 3.887-.166 1.493 0 2.746.055 3.759.166 1.009.109 1.788.297 2.338.559.55.265.934.574 1.154.924.222.352.329.749.329 1.188v76.653zM297.045 452.762c0 1.318-.053 2.43-.164 3.33-.111.9-.275 1.647-.493 2.24-.222.593-.495 1.022-.826 1.286-.329.265-.713.397-1.152.397h-39.083c-1.451 0-2.669-.429-3.657-1.286-.99-.855-1.483-2.251-1.483-4.186v-77.44c0-.439.141-.836.427-1.188.286-.35.757-.636 1.419-.855.659-.22 1.549-.397 2.667-.527 1.12-.132 2.517-.198 4.188-.198 1.713 0 3.117.066 4.218.198 1.099.132 1.978.309 2.637.527.659.222 1.129.506 1.417.855.284.352.429.749.429 1.188v68.608h26.822c.439 0 .823.122 1.152.363.329.241.604.638.826 1.188.22.55.384 1.276.493 2.176.109.9.164 2.005.164 3.324zM329.867 427.652v29.988c0 .439-.141.836-.429 1.188-.284.352-.755.638-1.417.855-.659.222-1.549.397-2.667.527-1.12.132-2.517.198-4.188.198-1.713 0-3.121-.066-4.218-.198-1.101-.132-1.988-.307-2.671-.527-.678-.22-1.152-.503-1.417-.855-.262-.352-.397-.749-.397-1.188v-29.988l-23.33-46.464c-.836-1.626-1.376-2.889-1.617-3.789-.241-.9-.109-1.581.397-2.042.503-.463 1.44-.749 2.801-.858 1.361-.109 3.251-.164 5.668-.164 2.02 0 3.633.045 4.845.132 1.205.09 2.165.254 2.867.495s1.218.561 1.549.954c.329.397.651.902.956 1.517l9.489 20.958c.926 2.02 1.835 4.151 2.737 6.394.9 2.24 1.813 4.591 2.733 7.053h.134c.834-2.372 1.69-4.678 2.571-6.921.877-2.242 1.734-4.371 2.569-6.394l9.361-20.826c.218-.704.491-1.263.821-1.681.331-.416.826-.757 1.483-1.022.661-.265 1.559-.439 2.705-.529 1.141-.087 2.658-.132 4.546-.132 2.505 0 4.45.055 5.833.164 1.382.111 2.33.397 2.833.858.503.461.627 1.152.363 2.076-.262.924-.789 2.176-1.581 3.757l-23.33 46.464z"/></g></svg>