<svg xmlns="http://www.w3.org/2000/svg" width="512" height="512" viewBox="0 0 512 512"><path d="M510.863 499.485c0 6.284-5.095 11.379-11.379 11.379h-486.969c-6.284 0-11.379-5.095-11.379-11.379v-486.969c0-6.284 5.092-11.379 11.379-11.379h486.969c6.284 0 11.379 5.095 11.379 11.379v486.969z" fill="#fff"/><path d="M499.485 512h-486.969c-6.899 0-12.515-5.616-12.515-12.515v-486.969c0-6.902 5.616-12.515 12.515-12.515h486.969c6.902 0 12.515 5.614 12.515 12.515v486.969c0 6.899-5.614 12.515-12.515 12.515zm-486.969-509.725c-5.646 0-10.24 4.592-10.24 10.24v486.969c0 5.646 4.592 10.24 10.24 10.24h486.969c5.646 0 10.24-4.594 10.24-10.24v-486.969c0-5.646-4.594-10.24-10.24-10.24h-486.969z" fill="#231f20"/><path d="M477.303 495.136h-442.607c-9.836 0-17.835-7.999-17.835-17.835v-442.604c0-9.836 7.999-17.835 17.835-17.835h442.604c9.834 0 17.835 7.999 17.835 17.835v442.604c0 9.836-7.999 17.835-17.833 17.835zm-442.607-464.62c-2.305 0-4.181 1.876-4.181 4.181v442.604c0 2.307 1.876 4.181 4.181 4.181h442.604c2.307 0 4.181-1.874 4.181-4.181v-442.604c0-2.305-1.874-4.181-4.181-4.181h-442.604z" fill="#010101"/><path d="M282.192 124.595c-51.68 0-93.724 42.046-93.724 93.726v71.577l-51.087-2.399c-1.729 1.733-1.729 4.525 0 6.254l68.142 92.357c1.729 1.727 4.53 1.727 6.254 0l73.294-92.357c1.736-1.733 1.731-4.523 0-6.254l-51.094 2.232v-71.409c0-26.585 21.63-48.215 48.215-48.215 26.585 0 48.215 21.63 48.215 48.215v168.2h45.511v-168.2c-.002-51.678-42.044-93.726-93.726-93.726z"/></svg>