<svg xmlns="http://www.w3.org/2000/svg" width="268.979" height="512" viewBox="0 0 268.9794 512"><path fill="#d3d4d3" d="M61.828 257.026h150.322v10.956h-150.322z"/><path d="M213.422 269.252h-152.866v-13.5h152.866v13.5zm-150.322-2.544h147.778v-8.412h-147.778v8.412zM50.58 250.792c-27.935 0-50.58 22.644-50.58 50.577s22.644 50.577 50.58 50.577c27.935 0 50.58-22.644 50.58-50.577s-22.644-50.577-50.58-50.577zm0 72.201c-11.945 0-21.627-9.684-21.627-21.627s9.684-21.627 21.627-21.627 21.627 9.684 21.627 21.627-9.681 21.627-21.627 21.627z"/><circle cx="83.228" cy="130.105" r="8.502" fill="#f23e32" transform="matrix(2.544 0 0 2.544 -161.13 -29.586)"/><path d="M167.818 301.366c0 27.93 22.644 50.577 50.58 50.577 27.935 0 50.582-22.644 50.582-50.577s-22.644-50.577-50.582-50.577c-27.933.003-50.58 22.647-50.58 50.577zm28.953 0c0-11.943 9.684-21.627 21.627-21.627 11.945 0 21.629 9.684 21.629 21.627s-9.684 21.627-21.629 21.627c-11.943 0-21.627-9.681-21.627-21.627z"/><circle cx="149.201" cy="130.105" r="8.502" fill="#f23e32" transform="matrix(2.544 0 0 2.544 -161.13 -29.586)"/><path fill="#d3d4d3" d="M121.807 7.171h25.364v503.557h-25.364z"/><path d="M148.442 512h-27.907v-506.101h27.907v506.101zm-25.364-2.544h22.82v-501.014h-22.82v501.014z"/><path d="M166.177 99.824l65.242-65.242c2.92-2.92 2.92-7.659 0-10.579l-21.212-21.212c-1.402-1.402-3.304-2.19-5.288-2.19-1.984 0-3.887.789-5.291 2.19l-65.242 65.242-65.033-65.033c-2.92-2.92-7.659-2.92-10.579 0l-21.212 21.212c-2.92 2.92-2.92 7.659 0 10.579l65.031 65.033-65.031 65.031c-2.92 2.92-2.92 7.659 0 10.579l21.421 21.423c2.92 2.92 7.659 2.92 10.579 0l64.822-64.819 64.819 64.819c1.404 1.402 3.307 2.19 5.291 2.19 1.984 0 3.887-.789 5.288-2.19l21.423-21.423c2.92-2.92 2.92-7.659 0-10.579l-65.028-65.031z" fill="#fff"/><path d="M204.496 199.642c-2.157 0-4.187-.839-5.711-2.366l-64.4-64.4-64.405 64.4c-1.526 1.526-3.551 2.366-5.711 2.366s-4.184-.839-5.711-2.366l-21.421-21.423c-1.526-1.526-2.366-3.551-2.366-5.711s.839-4.184 2.366-5.711l64.611-64.611-64.611-64.613c-3.149-3.149-3.149-8.27 0-11.419l21.212-21.212c1.526-1.526 3.551-2.366 5.711-2.366s4.184.839 5.711 2.366l64.613 64.611 64.822-64.822c1.526-1.526 3.554-2.366 5.711-2.366 2.127 0 4.207.862 5.708 2.366l21.212 21.212c3.149 3.149 3.149 8.27 0 11.419l-64.822 64.822 64.611 64.611c1.526 1.526 2.366 3.551 2.366 5.711s-.839 4.184-2.366 5.711l-21.423 21.423c-1.521 1.529-3.549 2.368-5.708 2.368zm-70.11-68.447l.42.422 64.819 64.819c1.302 1.3 3.032 2.017 4.871 2.017 1.814 0 3.587-.735 4.869-2.017l21.423-21.423c1.3-1.3 2.017-3.03 2.017-4.871 0-1.842-.717-3.569-2.017-4.871l-65.45-65.45 65.661-65.661c2.686-2.686 2.686-7.054 0-9.74l-21.212-21.212c-1.282-1.282-3.055-2.017-4.869-2.017-1.839 0-3.569.717-4.871 2.017l-65.661 65.664-.42-.422-65.033-65.031c-1.3-1.3-3.03-2.017-4.871-2.017-1.842 0-3.569.717-4.871 2.017l-21.212 21.212c-1.3 1.3-2.017 3.03-2.017 4.871 0 1.842.717 3.569 2.017 4.871l65.453 65.453-.422.42-65.028 65.028c-1.3 1.3-2.017 3.03-2.017 4.871 0 1.842.717 3.569 2.017 4.871l21.421 21.423c1.3 1.3 3.03 2.017 4.871 2.017 1.842 0 3.569-.717 4.871-2.017l65.242-65.244zM91.47 161.262l2.946-2.946-10.948-4.632c1.264-2.526 1.053-5.477-1.684-8.211-3.579-3.582-7.578-2.528-10.317.211l-6.527 6.525 17.898 17.687 2.526-2.737-7.369-7.158 2.948-3.159 10.529 4.421zm-12.212-13.052c1.895 1.895 1.684 3.793 0 5.477l-3.79 3.788-5.472-5.472 3.788-3.793c1.684-1.475 3.579-1.895 5.474 0zm138.712 35.409c5.683-5.683 5.891-11.582 1.681-15.791l-4.63-4.632-17.687 17.687 4.632 4.632c4.21 4.21 10.106 4.001 16.003-1.895zm-2.737-15.372l1.893 1.898c3.368 3.368 1.475 7.578-1.893 10.946-3.368 3.37-7.578 5.054-10.742 1.898l-2.101-2.106 12.843-12.635zm-33.058-20.421c5.266-5.052 6.738-11.368 2.528-15.369-3.999-4.21-10.317-2.526-15.58 2.737-5.263 5.054-6.736 11.37-2.737 15.369 4.21 4.212 10.529 2.528 15.789-2.737zm-10.315-10.106c3.576-3.579 7.791-5.474 10.315-2.74 2.74 2.528.845 6.738-2.735 10.317-3.579 3.79-7.791 5.474-10.317 2.74-2.737-2.526-.842-6.738 2.737-10.317zm-98.035-80.346l12.424-23.158-2.737-2.737-22.947 12.421 2.526 2.526 5.685-2.948 5.472 5.474-3.157 5.685 2.735 2.737zm-1.893-15.58l9.264-5.263-5.263 9.264-4.001-4.001zm132.984-12.291c5.263 5.263 11.368 6.947 15.578 2.737 3.79-3.79 3.579-8.422-.209-12.001l-3.159-3.157-5.052 5.052 2.317 2.526 2.526-2.526.842.842c2.104 2.106 2.526 4.421.211 6.736-2.737 2.528-6.947.633-10.317-2.737-3.999-3.788-5.263-7.789-2.737-10.317 1.473-1.684 2.946-1.684 5.263-.842l1.262-3.368c-3.157-1.473-6.316-1.262-9.053 1.473-4.21 4.212-2.737 10.32 2.528 15.583zm-3.037 21.563l2.315-2.315-17.687-17.687-2.526 2.526 12.424 12.212-18.948-5.685-2.526 2.528 17.687 17.687 2.526-2.528-13.054-12.843 19.79 6.105zm-26.671 26.674l2.526-2.526-17.687-17.687-2.526 2.528 17.687 17.684zm-70.11 5.639l15.158-15.158-2.74-2.737-17.684 17.687 9.898 9.895 2.526-2.526-7.158-7.161zm49.28 15.189c4.001-3.999 3.579-7.789.633-10.737-3.159-3.159-6.316-2.528-10.32-.842-3.579 1.473-4.841 1.264-6.316 0-.839-1.053-1.051-2.737.633-4.21 1.264-1.475 2.526-1.895 4.841-1.684l.211-3.79c-3.159-.211-5.474.633-7.578 2.737-3.159 3.159-3.37 6.947-.631 9.898 3.157 2.946 5.683 2.315 9.895.842 3.999-1.475 5.474-1.684 6.947-.422 1.473 1.684 1.262 3.579-.631 5.474-1.475 1.264-3.368 2.106-5.685 1.684l-.211 3.582c2.948.417 5.896-.214 8.211-2.531zm-95.581-71.804c2.526 1.264 5.474 1.053 8.214-1.684 3.579-3.579 2.526-7.58-.211-10.317l-6.474-6.474-17.791 17.791 2.737 2.526 7.262-7.262 3.106 2.897-4.421 10.526 2.948 2.948 4.63-10.951zm5.474-9.684c1.475 1.684 1.895 3.579 0 5.474s-3.79 1.686-5.474 0l-3.788-3.79 5.472-5.474 3.79 3.79zm23.166 53.482l17.687-17.687-2.528-2.526-17.895 17.687 2.737 2.526zm70.105 54.95c2.526 1.264 5.474 1.053 8.214-1.684 3.579-3.579 2.526-7.58-.211-10.317l-6.527-6.525-17.684 17.898 2.74 2.526 7.156-7.369 3.157 2.948-4.421 10.526 2.946 2.948 4.632-10.951zm5.477-9.687c1.473 1.684 1.895 3.579 0 5.474-1.895 1.898-3.79 1.686-5.474 0l-3.788-3.79 5.472-5.474 3.79 3.79zm28.846 59.373l12.421-23.161-2.737-2.737-22.95 12.421 2.531 2.737 5.68-3.157 5.477 5.474-3.162 5.683 2.74 2.74zm-1.9-15.58l9.267-5.263-5.263 9.264-4.004-4.001zm-57.313-38.906c4.001-4.001 3.582-7.789.633-10.737-3.157-3.159-6.314-2.526-10.317-.842-3.579 1.475-4.843 1.264-6.316 0-.839-1.053-1.051-2.737.631-4.21 1.264-1.475 2.528-1.895 4.843-1.684l.211-3.79c-3.157-.211-5.474.633-7.58 2.737-3.157 3.159-3.368 6.947-.631 9.898 3.157 2.948 5.685 2.315 9.898.842 3.999-1.475 5.472-1.686 6.947-.422 1.473 1.686 1.264 3.579-.631 5.474-1.475 1.264-3.368 2.106-5.685 1.684l-.211 3.582c2.948.417 5.896-.214 8.209-2.531zm-37.037 19.358c5.052 5.263 11.37 6.736 15.369 2.737 4.212-4.212 2.526-10.529-2.737-15.791-5.052-5.263-11.37-6.736-15.369-2.528-4.212 4.001-2.528 10.317 2.737 15.583zm10.104-10.317c3.788 3.579 5.474 7.789 2.737 10.317-2.526 2.737-6.736.842-10.317-2.74-3.579-3.579-5.474-7.791-2.737-10.315 2.528-2.737 6.738-.845 10.317 2.737zm-38.288 56.186c2.948-2.948 2.948-6.105 1.475-9.475l-3.368 1.262c1.051 2.32 1.051 4.001-.422 5.474-2.737 2.737-6.947.842-10.529-2.737-3.579-3.579-5.472-7.58-2.735-10.317 1.473-1.475 2.946-1.475 5.052-.633l1.473-3.368c-3.157-1.473-6.105-1.473-9.056 1.475-4.21 4.21-2.526 10.317 2.737 15.58 5.266 5.054 11.162 6.949 15.372 2.74z" fill="#231f20"/><path fill="#fff" d="M44.276 403.612h180.427v44.21h-180.427z"/><path d="M225.975 449.093h-182.971v-46.754h182.971v46.754zm-180.427-2.544h177.883v-41.666h-177.883v41.666zM78.617 434.083v4.467h-17.626c.191-1.686.763-3.287 1.717-4.8.954-1.511 2.839-3.515 5.655-6.013 2.266-2.02 3.658-3.388 4.169-4.106.692-.995 1.038-1.974 1.038-2.943 0-1.073-.3-1.895-.903-2.473-.603-.577-1.435-.865-2.495-.865-1.051 0-1.885.303-2.506.906-.621.603-.979 1.608-1.073 3.012l-5.011-.478c.3-2.645 1.236-4.546 2.808-5.695 1.575-1.152 3.543-1.73 5.907-1.73 2.59 0 4.622.669 6.102 2.002 1.478 1.333 2.218 2.994 2.218 4.978 0 1.129-.211 2.205-.636 3.228-.425 1.023-1.096 2.088-2.015 3.208-.608.743-1.707 1.809-3.292 3.2-1.587 1.394-2.592 2.315-3.017 2.773-.425.458-.766.9-1.028 1.333h9.987z"/></svg>