<svg xmlns="http://www.w3.org/2000/svg" width="512" height="512" viewBox="0 0 462.36864 462.3686"><path d="M42.532 1.7h377.296c22.46 0 40.84 18.38 40.84 40.833v377.304c0 22.46-18.38 40.833-40.84 40.833h-377.296c-22.46 0-40.833-18.373-40.833-40.833v-377.303c0-22.453 18.373-40.833 40.833-40.833" fill="#fff" stroke="#000" stroke-width="3.4"/><path d="M42.532 11.898h377.296c16.857 0 30.648 13.79 30.648 30.633v377.304c0 16.857-13.79 30.64-30.648 30.64h-377.296c-16.843 0-30.626-13.783-30.626-30.64v-377.304c0-16.843 13.783-30.633 30.626-30.633" fill="#155196" fill-rule="evenodd"/><path d="M81.899 196.519c0-13.365 10.893-24.266 24.266-24.266 13.365 0 24.252 10.901 24.252 24.266 0 13.365-10.886 24.266-24.252 24.266-13.373 0-24.266-10.901-24.266-24.266" fill="#fff" fill-rule="evenodd"/><path d="M70.382 307.146h-30.442v-172.722h30.442v97.056h321.604v-55.933h30.428v131.599h-30.428v-33.721h-321.604v33.721zM143.576 220.785c1.905-24.415 11.488-43.064 48.539-41.13 45.791-.269 91.581-.538 137.358-.815 37.107.212 45.302 19.704 49.353 41.945h-235.25z" fill="#fff" fill-rule="evenodd"/></svg>