<svg xmlns="http://www.w3.org/2000/svg" width="512" height="512" viewBox="0 0 462.36864 462.3686"><path d="M42.532 1.7h377.296c22.46 0 40.84 18.38 40.84 40.833v377.304c0 22.46-18.38 40.833-40.84 40.833h-377.296c-22.46 0-40.833-18.373-40.833-40.833v-377.303c0-22.453 18.373-40.833 40.833-40.833" fill="#fff" stroke="#000" stroke-width="3.4"/><path d="M42.532 11.898h377.296c16.857 0 30.648 13.79 30.648 30.633v377.304c0 16.857-13.79 30.64-30.648 30.64h-377.296c-16.843 0-30.626-13.783-30.626-30.64v-377.304c0-16.843 13.783-30.633 30.626-30.633" fill="#155196" fill-rule="evenodd"/><path d="M384.63 422.218v-382.247h-75.099v138.151h-158.266v-138.151h-75.114v382.247h75.114v-167.644h158.266v167.644h75.099z" fill="#fff" fill-rule="evenodd"/></svg>