<svg xmlns="http://www.w3.org/2000/svg" width="511.996" height="512" viewBox="0 0 509.98686 509.99034"><path d="M7.273 237.363l230.09-230.09c9.697-9.697 25.563-9.697 35.26 0l230.097 230.09c9.69 9.697 9.69 25.563 0 35.26l-230.097 230.09c-9.697 9.704-25.563 9.704-35.26 0l-230.09-230.09c-9.697-9.697-9.697-25.563 0-35.26" fill="#fecf33"/><path d="M13.959 239.521l225.557-225.564c8.521-8.507 22.439-8.507 30.953 0l225.557 225.564c8.514 8.514 8.514 22.439 0 30.946l-225.557 225.564c-8.514 8.507-22.432 8.507-30.953 0l-225.557-225.564c-8.507-8.507-8.507-22.432 0-30.946" fill-rule="evenodd"/><path d="M22.771 245.452l222.681-222.681c5.249-5.249 13.833-5.249 19.089 0l222.674 222.681c5.249 5.249 5.249 13.841 0 19.089l-222.674 222.681c-5.256 5.242-13.841 5.242-19.089 0l-222.681-222.681c-5.249-5.249-5.249-13.841 0-19.089" fill="#fecf33" fill-rule="evenodd"/><path d="M343.782 150.973c-19.89-14.025-45.134-23.969-69.861-26.009-37.236-3.315-75.223 9.69-103.528 34.424l-12.75-17.34c-1.537-2.04-3.067-3.577-5.61-3.577-3.825-.248-7.147 2.812-7.147 6.382l-3.825 85.926 81.088-28.559c3.57-1.013 5.355-5.1 4.08-8.67-.765-2.55-2.55-3.563-5.355-4.583l-20.137-7.14c19.627-15.3 45.382-22.439 70.116-20.407 18.615 1.785 37.484 9.187 52.026 20.145l20.902-30.592zM124.742 248.635c-2.04 24.224 2.295 50.744 13.005 73.183 16.327 34.169 46.664 60.427 82.363 72.156l-8.408 19.642c-1.027 2.55-1.53 4.583-.262 6.885 1.785 3.315 5.872 4.59 9.18 2.805l75.74-40.289-65.534-55.589c-2.812-2.295-7.147-2.04-9.69 1.013-1.53 2.047-1.53 4.087-1.027 6.892l3.825 21.157c-22.942-9.435-42.322-27.787-53.032-50.489-8.167-16.83-10.972-36.967-9.187-54.569l-36.974-2.798zM319.302 388.11c21.937-10.193 42.846-27.532 56.864-47.932 21.427-31.116 28.821-70.633 20.91-107.098l21.427-2.557c2.543-.503 4.583-1.013 6.113-3.315 1.785-3.053.772-7.395-2.295-9.435l-72.928-45.382-15.045 84.403c-.758 3.818 1.785 7.388 5.61 7.898 2.55.517 4.335-.758 6.637-2.543l16.313-13.515c3.315 24.224-2.798 50.234-17.085 70.888-10.448 15.3-26.264 28.049-42.839 35.444l16.32 33.142z" fill-rule="evenodd"/></svg>