<svg xmlns="http://www.w3.org/2000/svg" width="511.991" height="512" viewBox="0 0 421.75529 421.76288"><path d="M414.914 194.367l-187.49-187.468c-4.335-4.363-10.363-6.899-16.532-6.899-6.155 0-12.162 2.536-16.546 6.899l-187.497 187.468c-4.356 4.363-6.864 10.348-6.849 16.546.043 6.155 2.507 12.176 6.849 16.532l187.497 187.461c4.342 4.342 10.426 6.849 16.56 6.856 6.127-.006 12.197-2.514 16.532-6.856l187.475-187.454c5.617-5.617 8.011-14.074 6.297-21.809-1.006-4.455-3.471-7.763-6.297-11.276" fill="#ffd033"/><path d="M410.281 222.813l-187.468 187.461c-3.152 3.138-7.466 4.93-11.907 4.93s-8.748-1.792-11.9-4.93l-187.546-187.468c-3.117-3.117-4.887-7.487-4.887-11.9.014-4.413 1.785-8.79 4.894-11.907l187.525-187.518c3.138-3.102 7.501-4.88 11.9-4.88 4.413 0 8.797 1.778 11.921 4.88l187.468 187.525c3.145 3.152 4.923 7.458 4.923 11.9 0 4.448-1.778 8.755-4.923 11.907" fill-rule="evenodd"/><path d="M403.822 216.339c1.424-1.41 2.252-3.442 2.252-5.433 0-1.969-.829-4.059-2.252-5.461l-187.497-187.482c-1.395-1.402-3.442-2.231-5.419-2.231-1.983 0-4.059.829-5.468 2.231l-187.504 187.482c-1.417 1.424-2.203 3.449-2.203 5.454.014 2.005.786 4.002 2.217 5.433l187.49 187.511c1.41 1.402 3.499 2.231 5.468 2.231 1.99 0 4.023-.829 5.433-2.231l187.483-187.504z" fill="#ffd033" fill-rule="evenodd"/><path d="M273.032 125.208v-6.934h-26.455v6.934h9.491v45.027h7.473v-45.027h9.491zm-30.549.354v-7.289h-26.434v51.962h7.473v-24.43h10.391v-7.111h-10.391v-13.132h18.961zm-44.949 18.6c0 6.021-.354 9.116-1.643 13.309-1.275 4.377-3.279 6.389-6.382 6.389-3.272 0-5.277-2.012-6.566-6.389-1.091-4.193-1.643-7.473-1.643-13.125 0-5.836.368-9.3 1.643-13.309 1.289-4.37 3.294-6.382 6.566-6.382 3.102 0 5.107 2.012 6.382 6.559 1.091 3.832 1.643 7.119 1.643 12.948m7.111 0c0-7.834-.73-12.757-2.918-17.864-2.557-6.382-6.205-8.939-12.218-8.939-6.021 0-9.661 2.557-12.388 8.755-2.203 4.923-2.918 10.214-2.918 18.048 0 8.025.715 12.941 2.918 18.048 2.543 6.198 6.198 8.967 12.388 8.967 5.829 0 9.661-2.769 12.218-8.967 2.189-4.916 2.918-10.023 2.918-18.048m-39.297 11.85c0-7.473-4.377-13.125-14.407-18.961-3.832-2.182-4.923-3.641-4.923-6.198 0-3.464 2.741-6.014 6.198-6.014 3.279 0 5.836 2.366 6.021 6.014h7.111c-.191-7.834-5.844-13.493-13.132-13.493-7.473 0-13.309 6.021-13.309 13.493 0 4.562 2.189 8.571 6.382 11.489 10.582 7.104 7.664 5.1 8.755 6.198 3.095 2.366 4.193 4.554 4.193 7.473 0 4.2-3.279 7.848-7.296 7.848-5.1 0-7.296-4.562-7.296-8.939h-7.296c0 8.571 5.475 16.256 14.591 16.256 8.025 0 14.407-6.771 14.407-15.165M339.117 214.448c0 4.2-2.38 6.573-6.764 6.573h-7.65v-13.132h7.65c4.009 0 6.764 2.55 6.764 6.559m7.274 38.114l-7.473-25.527c4.93-1.827 7.473-6.382 7.473-12.587 0-8.379-5.461-13.855-13.67-13.855h-15.491v51.969h7.473v-24.437h7.111l6.927 24.437h7.65zm-35.763 0v-7.296h-18.954v-17.141h10.766v-7.104h-10.766v-13.132h16.95v-7.296h-24.423v51.969h26.427zm-41.776-25.712c0 4.009-.354 7.657-.722 10.936-.73 4.016-3.095 7.48-7.466 7.48h-6.205v-37.378h6.205c3.272 0 5.461 1.643 6.736 5.284.914 2.189 1.452 7.848 1.452 13.677m7.303-.368c0-4.009-.538-8.563-1.282-12.395-.907-5.291-3.102-9.3-6.191-11.489-1.835-1.459-4.009-2.005-8.393-2.005h-13.309v51.969h14.4c2.918 0 5.468-.737 7.303-2.373 5.093-4.009 7.473-11.666 7.473-23.707m-34.126 26.08v-6.934h-18.954v-45.034h-7.487v51.969h26.441zm-35.387-15.505v-36.464h-7.473v37.378c0 4.923-2.918 8.209-6.927 8.209-4.392 0-7.303-3.287-7.303-8.209v-37.378h-7.473v36.464c0 4.193.552 6.389 2.005 9.123 2.557 4.37 7.664 7.317 12.771 7.317 4.923 0 9.846-3.131 12.395-7.317 1.466-2.734 2.005-4.93 2.005-9.123m-44.517-10.575c0 6.021-.361 9.123-1.636 13.309-1.282 4.377-3.287 6.389-6.389 6.389-3.279 0-5.284-2.012-6.559-6.389-1.091-4.186-1.643-7.473-1.643-13.118 0-5.836.368-9.307 1.643-13.316 1.275-4.37 3.279-6.382 6.559-6.382 3.102 0 5.107 2.012 6.389 6.566 1.077 3.825 1.636 7.111 1.636 12.941m7.111 0c0-7.834-.737-12.757-2.911-17.864-2.557-6.382-6.212-8.939-12.225-8.939-6.021 0-9.661 2.557-12.395 8.762-2.189 4.916-2.918 10.207-2.918 18.041 0 8.025.73 12.955 2.918 18.055 2.557 6.198 6.198 8.96 12.395 8.96 5.836 0 9.668-2.762 12.225-8.96 2.175-4.923 2.911-10.03 2.911-18.055m-38.49 26.08v-51.969h-7.487v21.15h-14.223v-21.15h-7.466v51.969h7.466v-23.523h14.223v23.523h7.487zm-35.763-14.23c0-7.473-4.377-13.125-14.407-18.961-3.825-2.182-4.923-3.641-4.923-6.198 0-3.464 2.727-6.014 6.205-6.014 3.265 0 5.829 2.373 6.014 6.014h7.111c-.177-7.841-5.844-13.493-13.125-13.493-7.487 0-13.316 6.021-13.316 13.493 0 4.562 2.189 8.571 6.382 11.496 10.568 7.104 7.657 5.1 8.748 6.191 3.109 2.373 4.2 4.562 4.2 7.473 0 4.2-3.287 7.848-7.296 7.848-5.114 0-7.296-4.562-7.296-8.939h-7.296c0 8.571 5.468 16.256 14.591 16.256 8.025 0 14.407-6.771 14.407-15.165" fill-rule="evenodd"/></svg>