<svg xmlns="http://www.w3.org/2000/svg" width="512" height="512" viewBox="0 -0.321 511.99992 512.00001"><path d="M1.013 469.416v-427.452c0-22.811 18.453-41.264 41.257-41.264h427.459c22.805 0 41.257 18.453 41.257 41.264v427.452c0 22.811-18.453 41.257-41.257 41.257h-427.459c-22.805 0-41.257-18.446-41.257-41.257z" fill="#fff" stroke="#000" stroke-width="2.027" stroke-miterlimit="10"/><path d="M7.933 468.646c0 19.219 15.374 34.593 34.593 34.593h427.199c18.712 0 34.086-15.374 34.086-34.593v-427.199c0-18.706-15.374-34.08-34.086-34.08h-427.199c-19.219 0-34.593 15.374-34.593 34.08v427.199z"/><path d="M20.746 468.646v-427.199c0-11.789 9.736-21.525 21.785-21.525h427.199c11.789 0 21.525 9.736 21.525 21.525v427.199c0 12.042-9.736 21.785-21.525 21.785h-427.199c-12.048 0-21.785-9.743-21.785-21.785" fill="#fff"/><path d="M413.86 97.827c-87.126-87.132-228.077-87.132-315.21 0-86.873 87.132-86.873 228.077 0 315.21 87.132 86.873 228.083 86.873 315.21 0 87.132-87.132 87.132-228.077 0-315.21" fill="#c0111e"/><path d="M381.058 130.63c65.607 65.348 68.933 169.393 9.996 238.84l-248.836-248.836c69.446-58.937 173.492-55.611 238.84 9.996" fill="#fff"/><path d="M370.04 390.23c-69.446 58.943-173.239 55.611-238.586-9.996-65.601-65.348-68.933-169.393-9.996-238.84l248.582 248.836z" fill="#fff"/><path d="M314.43 292.591c5.638-7.177 14.348-11.789 24.344-11.789 17.173 0 31.008 13.841 31.268 30.754h22.038v-137.619h-188.1v8.203l110.45 110.45zM194.753 244.925h-35.879c-1.28 0-2.559-.766-3.332-1.793-1.02-1.026-1.28-2.306-1.02-3.592l6.658-28.702c.26-.507.773-1.28 1.286-1.533.513-.513 1.28-.773 2.046-.773l23.837-.253-8.203-8.203h-16.147c-2.559.26-5.125 1.026-6.917 2.819-1.793 1.539-3.072 3.592-3.585 5.898l-7.177 30.748c-.513 1.539-1.28 3.079-2.566 3.845-1.02 1.026-2.819 1.539-4.352 1.539h-19.992c-1.026 0-2.306.513-3.072 1.28-.513.773-1.026 1.793-1.026 2.819v50.74h-5.897v12.562h11.022c-.26-17.173 13.581-31.268 31.008-31.521 17.173 0 31.268 13.581 31.268 31.008h109.17l-97.128-97.128v30.241zM151.444 286.44c-13.841 0-25.117 11.276-25.117 25.117 0 13.835 11.276 25.37 25.117 25.37 13.841 0 25.117-11.535 25.117-25.37 0-13.841-11.276-25.117-25.117-25.117M338.774 286.44c-8.457 0-15.634 4.098-20.245 10.249l35.106 35.113c6.151-4.618 10.256-11.789 10.256-20.245 0-13.841-11.276-25.117-25.117-25.117"/></svg>