<svg xmlns="http://www.w3.org/2000/svg" width="512" height="511.933" viewBox="0 -0.321 218.74226 218.71378"><path d="M103.511 216.003l-101.089-101.089c-3.23-3.23-3.23-8.495 0-11.724l101.084-101.084c3.23-3.232 8.5-3.235 11.729-.005l101.084 101.094c3.23 3.23 3.23 8.492 0 11.722l-101.084 101.087c-3.19 3.185-8.532 3.19-11.724 0" fill="#f4911d"/><path d="M105.12 214.356l-101.052-101.049c-2.324-2.329-2.319-6.181 0-8.51l101.047-101.047c2.329-2.326 6.176-2.321 8.512 0l101.042 101.052c2.324 2.329 2.329 6.173 0 8.505l-101.042 101.049c-2.331 2.314-6.181 2.321-8.507 0" fill-rule="evenodd"/><path d="M107.369 212.048l-100.991-100.991c-1.117-1.082-1.117-2.926 0-4.008l100.991-100.989c1.079-1.117 2.921-1.117 4.005 0l100.991 100.989c1.117 1.084 1.117 2.929-.004 4.013l-100.982 100.986c-1.084 1.117-2.926 1.117-4.01 0" fill="#f4911d" fill-rule="evenodd"/><path d="M169.23 85.071c0 1.117-.647 2.236-1.676 2.793-.657.374-1.117.472-2.427.472h-5.034v-6.53h5.034c1.403 0 1.769.093 2.427.467 1.029.557 1.676 1.676 1.676 2.798m4.753 19.11l-4.66-12.399c2.427-1.117 4.103-3.917 4.103-6.71 0-2.705-1.676-5.503-4.01-6.623-1.302-.65-2.7-.843-4.753-.843h-8.766v26.575h4.196v-11.561h5.034l4.289 11.561h4.567zm-24.334-9.508v-17.067h-4.196v17.067c0 3.451-1.955 5.686-4.846 5.686-2.888 0-4.843-2.236-4.843-5.686v-17.067h-4.201v17.067c0 2.05.467 3.917 1.212 5.501 1.4 2.612 4.567 4.489 7.832 4.489 3.262 0 6.434-1.877 7.832-4.489.745-1.583 1.21-3.451 1.21-5.501m-28.061-3.729c0 2.053-.467 4.66-1.024 6.058-.936 2.334-2.148 3.358-4.108 3.358-1.676 0-2.793-.652-3.631-2.05-1.029-1.681-1.589-4.572-1.589-7.365 0-2.241.371-4.663 1.029-6.249.926-2.329 2.236-3.353 4.284-3.265 1.589.098 2.612.655 3.451 2.053 1.029 1.769 1.589 4.474 1.589 7.461m4.193 0c0-3.358-.65-6.71-1.772-9.044-1.676-3.265-4.01-4.753-7.363-4.753-3.077 0-5.225.931-6.808 2.984-1.774 2.514-2.891 6.432-2.891 10.813 0 3.172.745 6.715 1.862 8.949 1.589 3.265 3.917 4.771 7.646 4.771 2.798 0 4.941-.946 6.437-3.001 1.862-2.326 2.888-6.522 2.888-10.718m-22.191-9.601v-3.737h-16.409v3.737h6.063v22.839h4.191v-22.839h6.156zm-18.457 22.839v-4.289h-12.314v-7.272h7.744v-4.284h-7.744v-6.53h11.471v-4.201h-15.659v26.575h16.502zm-26.575-13.33c0 3.543-.838 6.429-2.422 8.018-.745.745-1.588 1.024-2.984 1.024h-4.196v-18.086h4.753c1.122 0 2.05.467 2.7 1.119 1.31 1.395 2.148 4.382 2.148 7.925m4.289 0c0-5.22-1.583-9.421-4.382-11.842-1.398-1.117-2.422-1.403-5.127-1.403h-8.577v26.575h9.602c1.398-.093 2.798-.557 3.822-1.491 2.986-2.331 4.663-6.527 4.663-11.84" fill-rule="evenodd"/><path d="M52.85 146.259v-21.84h-1.681v-2.896c1.496-.095 2.427-.745 2.991-1.87h2.52v26.605h-3.829zM73.202 126.286c-.657-2.339-1.681-3.363-3.27-3.363-1.681 0-2.705 1.024-3.363 3.265-.652 2.053-.838 3.827-.838 6.818 0 2.891.281 4.572.838 6.718.657 2.241 1.681 3.27 3.363 3.27 1.588 0 2.612-1.029 3.27-3.27.652-2.146.838-3.734.838-6.816 0-2.986-.281-4.668-.838-6.623m2.984 15.865c-1.302 3.177-3.265 4.572-6.254 4.572-3.172 0-5.039-1.395-6.346-4.572-1.119-2.612-1.496-5.132-1.496-9.242 0-4.015.376-6.72 1.496-9.24 1.4-3.172 3.267-4.479 6.346-4.479 3.084 0 4.951 1.307 6.254 4.572 1.122 2.612 1.496 5.132 1.496 9.147 0 4.111-.374 6.723-1.496 9.242M93.644 126.286c-.652-2.339-1.681-3.363-3.267-3.363-1.676 0-2.708 1.024-3.358 3.265-.657 2.053-.843 3.827-.843 6.818 0 2.891.279 4.572.843 6.718.65 2.241 1.681 3.27 3.358 3.27 1.586 0 2.615-1.029 3.267-3.27.652-2.146.838-3.734.838-6.816 0-2.986-.279-4.668-.838-6.623m2.986 15.865c-1.305 3.177-3.265 4.572-6.254 4.572-3.172 0-5.039-1.395-6.349-4.572-1.122-2.612-1.493-5.132-1.493-9.242 0-4.015.371-6.72 1.493-9.24 1.403-3.172 3.27-4.479 6.349-4.479 3.082 0 4.949 1.307 6.254 4.572 1.122 2.612 1.493 5.132 1.493 9.147 0 4.111-.371 6.723-1.493 9.242M114.089 126.286c-.657-2.339-1.681-3.363-3.27-3.363-1.681 0-2.705 1.024-3.358 3.265-.657 2.053-.843 3.827-.843 6.818 0 2.891.281 4.572.843 6.718.652 2.241 1.676 3.27 3.358 3.27 1.589 0 2.612-1.029 3.27-3.27.652-2.146.838-3.734.838-6.816 0-2.986-.281-4.668-.838-6.623m2.984 15.865c-1.302 3.177-3.265 4.572-6.254 4.572-3.172 0-5.039-1.395-6.346-4.572-1.119-2.612-1.496-5.132-1.496-9.242 0-4.015.376-6.72 1.496-9.24 1.4-3.172 3.267-4.479 6.346-4.479 3.084 0 4.951 1.307 6.254 4.572 1.122 2.612 1.496 5.132 1.496 9.147 0 4.111-.374 6.723-1.496 9.242"/><path d="M140.973 123.389v6.72h5.323v3.641h-5.323v12.507h-3.827v-26.603h13.536v3.734h-9.709zM161.044 123.203v23.057h-3.827v-23.057h-4.853v-3.548h13.534v3.548h-4.853z"/></svg>