<svg xmlns="http://www.w3.org/2000/svg" width="511.991" height="512" viewBox="0 0 421.75529 421.76288"><path d="M414.914 194.367l-187.49-187.468c-4.335-4.363-10.363-6.899-16.532-6.899-6.155 0-12.162 2.536-16.546 6.899l-187.497 187.468c-4.356 4.363-6.864 10.348-6.849 16.546.043 6.155 2.507 12.176 6.849 16.532l187.497 187.461c4.342 4.342 10.426 6.849 16.56 6.856 6.127-.006 12.197-2.514 16.532-6.856l187.475-187.454c5.617-5.617 8.011-14.074 6.297-21.809-1.006-4.455-3.471-7.763-6.297-11.276" fill="#ffd033"/><path d="M410.281 222.813l-187.468 187.461c-3.152 3.138-7.466 4.93-11.907 4.93s-8.748-1.792-11.9-4.93l-187.546-187.468c-3.117-3.117-4.887-7.487-4.887-11.9.014-4.413 1.785-8.79 4.894-11.907l187.525-187.518c3.138-3.102 7.501-4.88 11.9-4.88 4.413 0 8.797 1.778 11.921 4.88l187.468 187.525c3.145 3.152 4.923 7.458 4.923 11.9 0 4.448-1.778 8.755-4.923 11.907" fill-rule="evenodd"/><path d="M403.822 216.339c1.424-1.41 2.252-3.442 2.252-5.433 0-1.969-.829-4.059-2.252-5.461l-187.497-187.482c-1.395-1.402-3.442-2.231-5.419-2.231-1.983 0-4.059.829-5.468 2.231l-187.504 187.482c-1.417 1.424-2.203 3.449-2.203 5.454.014 2.005.786 4.002 2.217 5.433l187.49 187.511c1.41 1.402 3.499 2.231 5.468 2.231 1.99 0 4.023-.829 5.433-2.231l187.483-187.504z" fill="#ffd033" fill-rule="evenodd"/><path d="M354.629 191.102c0 3.641-2.132 7.593-5.178 9.116-2.429 1.218-3.938 1.523-8.188 1.523h-17.941v-21.271h17.941c4.25 0 5.759.305 8.188 1.516 3.046 1.82 5.178 5.468 5.178 9.116m13.968 0c0-8.811-5.766-17.934-13.359-21.575-4.264-2.125-8.811-2.734-15.817-2.734h-29.77v86.605h13.67v-37.682h16.1c6.701 0 11.857-1.218 15.817-3.039 7.593-3.343 13.359-12.459 13.359-21.575m-80.634 62.296v-86.605h-13.67l-20.059 48.611-20.045-48.611h-13.685v86.605h13.685v-50.141l20.045 50.141 20.059-50.141v50.141h13.67zm-88.829-31.003v-55.602h-13.699v55.602c0 11.248-6.389 18.536-15.809 18.536-9.421 0-15.788-7.288-15.788-18.536v-55.602h-13.685v55.602c0 6.686 1.509 12.757 3.945 17.934 4.569 8.507 14.903 14.634 25.527 14.634 10.639 0 20.973-6.127 25.535-14.634 2.437-5.178 3.974-11.248 3.974-17.934m-88.262 6.991c0 6.686-3.655 10.023-10.639 10.023h-20.668v-23.693h17.332c3.032 0 3.959 0 5.766.602 4.859 1.82 8.209 7.303 8.209 13.068m-1.827-40.104c0 3.952-1.827 7.593-4.873 10.023-2.415 1.827-4.243 2.437-8.188 2.437h-16.419v-21.271h20.059c6.07 0 9.421 3.032 9.421 8.811m15.809 39.8c0-9.421-5.171-16.709-14.287-20.966 8.202-4.554 12.148-10.936 12.148-19.443 0-12.459-10.32-21.88-24.005-21.88h-32.816v86.605h32.816c3.952 0 9.13-.914 12.162-2.132 8.202-3.35 13.982-12.764 13.982-22.184" fill-rule="evenodd"/></svg>