<svg xmlns="http://www.w3.org/2000/svg" width="512" height="255.885" viewBox="0 0 299.3431 149.60402"><path d="M11.692 149.601l275.955.003c6.446 0 11.696-5.246 11.696-11.689v-126.223c.004-6.439-5.25-11.692-11.696-11.692l-275.955.004c-6.443 0-11.689 5.246-11.689 11.689l-.003 126.216c.003 6.368 5.328 11.7 11.693 11.693" fill="#ffd033"/><path d="M11.735 146.362l275.877-.004c4.637-.003 8.475-3.848 8.485-8.485l-.004-126.138c.004-4.637-3.848-8.471-8.485-8.485l-275.87.004c-4.645.007-8.485 3.837-8.489 8.485v126.138c.011 4.63 3.837 8.485 8.485 8.485" fill-rule="evenodd"/><path d="M11.795 141.817l275.757-.004c2.195.042 4.036-1.802 4-4l-.004-126.017c.039-2.191-1.802-4.039-3.997-3.997l-275.753.004c-2.202-.046-4.043 1.802-3.997 3.997l-.008 126.017c-.039 2.195 1.802 4.036 4 4" fill="#ffd033" fill-rule="evenodd"/><path d="M28.022 95.669h159.021l-7.784 24.596c-.251.789-.428 1.593-.443 2.428-.088 3.89 2.942 7.42 6.708 8.149 2.23.439 4.514-.032 6.368-1.306l79.424-54.654-79.335-54.555c-1.412-.973-3.037-1.551-4.754-1.561-3.89-.039-7.42 2.828-8.153 6.645-.258 1.381-.244 2.761.184 4.092l7.784 24.592h-159.021v41.574z" fill-rule="evenodd"/></svg>