<?xml version="1.0" encoding="UTF-8" standalone="no"?>
<!-- Created with Inkscape (http://www.inkscape.org/) -->

<svg xmlns:dc="http://purl.org/dc/elements/1.1/" xmlns:cc="http://creativecommons.org/ns#" xmlns:rdf="http://www.w3.org/1999/02/22-rdf-syntax-ns#" xmlns:svg="http://www.w3.org/2000/svg" xmlns="http://www.w3.org/2000/svg" version="1.1" width="512" height="512" viewBox="-1 0 512 511.99998" xml:space="preserve"><metadata><rdf:RDF><cc:Work rdf:about=""><dc:format>image/svg+xml</dc:format><dc:type rdf:resource="http://purl.org/dc/dcmitype/StillImage" /><dc:title></dc:title></cc:Work></rdf:RDF></metadata>
<defs></defs>
<path d="m 509.63706,478.80551 c 0,17.50603 -14.32413,31.83017 -31.83016,31.83017 l -445.622075,0 c -17.506015,0 -31.83013898,-14.32414 -31.83013898,-31.83017 l 0,-445.622115 c 0,-17.50601 14.32412398,-31.83013 31.83015698,-31.83013 l 445.622057,0 c 17.50603,0 31.83016,14.32412 31.83016,31.83013 l 0,445.622115 z" style="fill:#ffffff;fill-opacity:1;fill-rule:nonzero;stroke:#000000;stroke-width:2.71762204;stroke-miterlimit:4;stroke-opacity:1;stroke-dasharray:none" /><path d="m 477.80693,9.310905 -445.622069,0 c -13.128379,0 -23.8720446,10.74366 -23.8720446,23.87204 l 0,445.622065 c 0,13.13065 10.7436656,23.87206 23.8720446,23.87206 l 445.622069,0 c 13.13065,0 23.87205,-10.7414 23.87205,-23.87205 l 0,-445.622055 c 0,-13.1284 -10.7414,-23.87206 -23.87205,-23.87206 m 10.61005,469.494105 c 0,5.8361 -4.77395,10.61005 -10.61005,10.61005 l -445.622069,0 c -5.836093,0 -10.610049,-4.77395 -10.610049,-10.61005 l 0,-445.622045 c 0,-5.83383 4.773956,-10.61005 10.610049,-10.61005 l 445.622069,0 c 5.8361,0 10.61005,4.77622 10.61005,10.61005 l 0,445.622045 z" style="fill:#000000;fill-opacity:1;fill-rule:nonzero;stroke:none" /><path d="m 313.53118,127.93352 c -1.72117,-1.20481 -3.81826,-1.91139 -6.07842,-1.91139 -5.85874,0 -10.61005,4.74904 -10.61005,10.61004 0,1.09838 0.16759,2.15825 0.47785,3.15471 l 9.40071,31.32739 -136.6058,0 0,222.81105 53.05024,0 0,-169.76078 83.55556,0 -9.40071,31.32737 c -0.31026,0.99646 -0.47785,2.0563 -0.47785,3.15471 0,5.85872 4.75131,10.61005 10.61005,10.61005 2.26016,0 4.35725,-0.70659 6.07842,-1.91145 L 414.1466,197.63829 313.53118,127.93352 z" style="fill:#000000;fill-opacity:1;fill-rule:nonzero;stroke:none" /><path d="m 254.99633,33.183415 c -123.05619,0 -222.811034,99.754835 -222.811034,222.811075 0,123.05392 99.754844,222.81102 222.811034,222.81102 123.05619,0 222.81104,-99.75712 222.81104,-222.81102 0,-123.05624 -99.75485,-222.811075 -222.81104,-222.811075 M 74.625493,255.99449 c 0,-42.16166 14.466808,-80.94215 38.705737,-111.65581 L 366.6521,397.65959 c -30.7114,24.23886 -69.49413,38.70572 -111.65577,38.70572 -99.6167,0 -180.370837,-80.75414 -180.370837,-180.37082 M 396.66144,367.65025 143.34057,114.32934 c 30.71365,-24.238925 69.49412,-38.705735 111.65576,-38.705735 99.6167,0 180.37084,80.754135 180.37084,180.370885 0,42.1616 -14.46681,80.94207 -38.70573,111.65569" style="fill:#bf2033;fill-opacity:1;fill-rule:nonzero;stroke:none" /></svg>