<svg xmlns="http://www.w3.org/2000/svg" width="427.125" height="512"><path d="M425.75 484.116c0 14.588-11.936 26.524-26.524 26.524h-371.342c-14.59 0-26.527-11.936-26.527-26.524v-456.22c0-14.588 11.936-26.524 26.527-26.524h371.342c14.588 0 26.524 11.936 26.524 26.524v456.22z" fill="#fff" stroke="#000" stroke-width="2.731"/><path d="M399.226 8.444h-371.342c-10.698 0-19.452 8.754-19.452 19.452v456.22c0 10.698 8.754 19.45 19.452 19.45h371.342c10.698 0 19.452-8.752 19.452-19.45v-456.22c0-10.698-8.754-19.452-19.452-19.452m8.841 475.672c0 4.862-3.979 8.841-8.841 8.841h-371.342c-4.864 0-8.843-3.979-8.843-8.841v-456.22c0-4.864 3.979-8.843 8.843-8.843h371.342c4.862 0 8.841 3.979 8.841 8.843v456.22zM320.263 148.242c-.833-1.127-2.01-2.014-3.439-2.492-3.706-1.238-7.712.763-8.95 4.468-.232.694-.351 1.4-.364 2.096l-.671 21.794-30.02-10.07c-26.506-9-45.58-34.095-45.58-63.644v-42.439h-35.367v42.906h.007c.2 45.098 29.504 83.324 70.102 96.856l29.656 9.935-12.56 17.825c-.405.564-.735 1.2-.967 1.894-1.238 3.706.763 7.712 4.468 8.95 1.429.476 2.904.471 4.247.073l78.341-22.828-48.901-65.324zM106.846 236.452c.833 1.127 2.01 2.014 3.439 2.492 3.706 1.238 7.712-.763 8.95-4.468.232-.694.351-1.4.364-2.096l.671-21.794 30.02 10.07c26.506 9 45.58 34.095 45.58 63.644v42.439h35.367v-42.906h-.007c-.2-45.098-29.504-83.324-70.102-96.856l-29.656-9.935 12.56-17.822c.405-.567.735-1.202.967-1.896 1.238-3.706-.763-7.712-4.468-8.95-1.429-.476-2.904-.471-4.247-.073l-78.341 22.828 48.901 65.324zM122.957 453.081c-4.905 6.412-11.568 9.558-20.497 9.558-11.945 0-19.238-4.78-24.394-15.216-3.521-7.168-6.036-18.485-6.036-28.543 0-14.085 3.521-26.659 9.305-34.582 4.905-6.665 11.945-9.555 21.753-9.555 23.515 0 29.174 25.149 29.174 44.137 0 13.327-3.396 26.656-9.305 34.202m-19.869-64.634c-7.543 0-11.064 3.018-14.083 10.439-2.012 5.03-3.269 12.826-3.269 19.994 0 8.927 1.885 18.107 5.156 23.513 2.64 4.402 6.162 6.539 11.568 6.539 6.287 0 10.186-3.269 13.079-10.689 1.759-4.527 3.269-12.826 3.269-19.363 0-9.808-2.137-30.432-15.719-30.432"/><path d="M197.02 461.128l-32.442-57.467v57.467h-13.454v-84.878h13.454l30.933 54.196v-54.196h13.329v84.878h-11.82zM229.461 461.128v-84.878h13.454v72.43h39.232v12.448h-52.687zM325.655 424.159v36.97h-13.454v-36.97l-29.802-47.909h16.095l20.247 32.693 20.622-32.693h15.717l-29.424 47.909z"/></svg>