<svg xmlns="http://www.w3.org/2000/svg" width="511.91" height="512" viewBox="0 0 509.90814 509.99738"><path d="M6.749 238.453l231.614-231.621c9.116-9.109 23.977-9.109 33.093 0l231.614 231.621c9.116 9.109 9.116 23.97 0 33.086l-231.614 231.621c-9.116 9.116-23.977 9.116-33.093 0l-231.614-231.621c-8.996-8.996-9.003-24.09 0-33.086" fill="#ffd033"/><path d="M11.405 242.991l231.501-231.501c6.566-6.566 17.446-6.552 24.012 0l231.501 231.501c6.573 6.573 6.545 17.432 0 24.012l-231.501 231.501c-6.573 6.552-17.432 6.559-24.012 0l-231.501-231.501c-6.545-6.58-6.573-17.439 0-24.012" fill-rule="evenodd"/><path d="M17.921 249.341l231.338-231.338c3.053-3.166 8.252-3.159 11.312 0l231.331 231.338c3.159 3.053 3.159 8.259 0 11.312l-231.331 231.331c-3.053 3.166-8.266 3.173-11.312 0l-231.338-231.331c-3.159-3.06-3.159-8.259 0-11.312" fill="#ffd033" fill-rule="evenodd"/><path d="M134.132 292.896v-34.878c0-17.085 3.981-33.943 11.177-49.413 2.401-5.164 5.171-10.172 8.372-14.882 5.907-8.698 12.389-17.063 16.787-26.675 4.427-9.669 6.949-20.201 6.949-30.862v-26.874h43.264v26.874c0 11.73-1.686 23.46-4.958 34.722-2.961 10.193-7.197 20.223-13.21 28.999-2.975 4.349-6.403 8.387-9.732 12.438-2.968 3.612-5.759 7.26-7.799 11.468-5.234 10.766-7.048 22.758-7.133 34.63l-.241 34.453 25.117-8.245c.8-.34 1.495-.567 2.373-.63 3.124-.248 6.254 1.339 7.954 3.981 1.452 2.281 1.778 5.249.914 7.806-.439 1.332-1.169 2.026-1.941 3.138l-55.83 80.515-56.694-80.735c-1.431-2.026-2.267-2.727-2.373-5.135-.163-3.414.949-6.262 3.875-8.217 1.849-1.247 4.052-1.58 6.226-1.247.623.092.992.326 1.572.524l25.33 8.245zM285.599 170.824l-25.33 8.181c-1.112.404-1.679.673-2.826.673-3.223 0-5.702-1.055-7.579-3.761-1.672-2.394-1.955-5.582-.885-8.287.453-1.183 1.048-1.693 1.757-2.685l56.928-80.72 55.639 80.515c.545.786 1.785 2.288 2.146 3.45.262.85.446 1.742.46 2.635.028 3.627-2.337 6.687-5.553 8.132-1.381.637-2.748.843-4.215.574-.68-.12-1.346-.163-1.941-.524l-25.315-8.181.191 34.41c.043 8.061.942 16.114 3.187 23.863 1.757 6.084 4.3 12.091 8.16 17.17 3.414 4.505 7.126 8.797 10.597 13.267 2.932 3.797 5.518 7.884 7.707 12.148 8.812 17.106 13.224 36.422 13.224 55.625v27.03h-43.286v-27.03c0-14.861-4.859-29.65-13.132-41.947l-9.874-14.294c-3.471-5.135-6.517-10.561-9.088-16.185-7.14-15.519-10.972-32.377-10.972-49.448v-34.609zM212.784 411.171c.198-8.273.404-16.546.956-24.805 1.169-17.559 3.924-34.963 8.259-52.005 3.535-13.819 7.197-27.844 13.267-40.814.602-1.275 1.31-2.515 2.097-3.676 3.301-4.866 7.756-7.898 13.536-9.109 5.645-1.169 11.581.368 16.256 3.69 3.294 2.33 5.645 5.822 7.168 9.527 4.774 11.553 8.302 23.63 11.347 35.735 4.732 18.742 8.479 37.725 9.931 57.013.609 8.132.786 16.299.999 24.444h-83.816z" fill-rule="evenodd"/></svg>