<?xml version="1.0" encoding="UTF-8" standalone="no"?>
<!-- Created with Inkscape (http://www.inkscape.org/) -->

<svg xmlns:dc="http://purl.org/dc/elements/1.1/" xmlns:cc="http://creativecommons.org/ns#" xmlns:rdf="http://www.w3.org/1999/02/22-rdf-syntax-ns#" xmlns:svg="http://www.w3.org/2000/svg" xmlns="http://www.w3.org/2000/svg" version="1.1" width="512" height="512" viewBox="-0.999 0 512.00001 512.00001" xml:space="preserve"><metadata><rdf:RDF><cc:Work rdf:about=""><dc:format>image/svg+xml</dc:format><dc:type rdf:resource="http://purl.org/dc/dcmitype/StillImage" /><dc:title></dc:title></cc:Work></rdf:RDF></metadata>
<defs></defs>
<path d="m 509.31627,478.5366 c 0,17.48389 -14.30627,31.79016 -31.79016,31.79016 l -445.048213,0 c -17.483886,0 -31.79016153,-14.30627 -31.79016153,-31.79016 l 0,-445.04821 C 0.68773547,16.0045 14.994011,1.69823 32.477897,1.69823 l 445.048213,0 c 17.48389,0 31.79016,14.30627 31.79016,31.79016 l 0,445.04821 z" style="fill:#ffffff;fill-opacity:1;fill-rule:nonzero;stroke:#000000;stroke-width:3.37147093;stroke-miterlimit:4;stroke-opacity:1;stroke-dasharray:none" /><path d="m 477.52696,9.64533 -445.048209,0 c -13.115022,0 -23.8419187,10.7297 -23.8419187,23.84191 l 0,445.04822 c 0,13.11502 10.7268967,23.84192 23.8419187,23.84192 l 445.048209,0 c 13.11222,0 23.84192,-10.7269 23.84192,-23.84192 l 0,-445.04822 c 0,-13.11221 -10.7297,-23.84191 -23.84192,-23.84191 m 10.59766,468.89013 c 0,5.82983 -4.77063,10.59765 -10.59766,10.59765 l -445.048209,0 c -5.829835,0 -10.597657,-4.76782 -10.597657,-10.59765 l 0,-445.04822 c 0,-5.82702 4.767822,-10.59765 10.597657,-10.59765 l 445.048209,0 c 5.82703,0 10.59766,4.77063 10.59766,10.59765 l 0,445.04822 z" style="fill:#000000;fill-opacity:1;fill-rule:nonzero;stroke:none" /><path d="m 183.18018,217.57855 17.88284,-49.33586 -5.66688,-9.66488 11.33376,-12.33397 24.33359,0 0.33153,7.00142 -21.33298,0 -4.33234,4.66387 5.00101,9.00183 -6.28779,22.28261 87.32391,0 1.33454,-4.07667 c -7.01828,-0.9131 -19.12467,-5.23702 -22.01571,-7.74876 -2.89103,-2.50894 -0.35962,-4.8184 2.93318,-4.92797 17.23665,-0.73048 42.84016,-2.1746 47.70632,-2.19707 4.86334,-0.0225 5.36063,2.42465 2.10436,5.98717 -3.25347,3.56252 -6.09956,6.76822 -18.43633,8.67873 l -3.33214,8.99901 20.6615,25.60071 c 9.74074,-5.91413 21.52122,-8.99059 32.96737,-8.99059 34.33562,0 62.34411,28.00849 62.34411,62.34411 0,34.33844 -28.00849,62.34412 -62.34411,62.34412 -28.25012,0 -53.09224,-19.48148 -60.39148,-46.40549 l -18.987,3.41081 c -0.81196,2.23922 -2.70841,3.95305 -4.97292,5.29883 l 3.38833,16.06225 4.33234,0 0.33434,4.33234 -13.6657,0.66586 0,-4.66668 3.33214,0 -4.12724,-16.05101 c -6.1417,-1.00582 -9.36145,-6.26532 -7.53243,-11.48267 l -62.02664,-70.15188 -2.77865,7.524 c 15.05643,11.85915 24.06668,30.12409 24.06668,49.11952 0,34.33844 -28.00568,62.34412 -62.34411,62.34412 -34.33844,0 -62.344122,-28.00568 -62.344122,-62.34412 0,-34.33562 28.005682,-62.34411 62.344122,-62.34411 9.98517,0 20.21196,2.43588 28.8626,7.06042 m 124.00551,69.10953 c 5.71183,21.2768 26.02213,36.65913 48.50423,36.65913 27.80339,0 50.48215,-22.67876 50.48215,-50.48497 0,-27.80339 -22.67876,-50.48215 -50.48215,-50.48215 -8.8754,0 -19.14434,2.09593 -26.63462,6.48165 l 27.40163,36.37817 c 3.3518,0.0535 6.26812,3.04837 6.26812,6.66708 0,3.6721 -2.99499,6.66709 -6.66708,6.66709 -1.01706,0 -2.08189,-0.26129 -2.98375,-0.68554 l -45.88853,8.79954 z M 161.12795,271.73842 c 11.70462,-9.29402 20.81602,-18.15537 27.38477,-35.88931 10.37008,9.40641 16.28701,23.0131 16.28701,37.01313 0,27.80621 -22.67876,50.48216 -50.48215,50.48216 -27.80621,0 -50.48216,-22.67595 -50.48216,-50.48216 0,-27.80339 22.67595,-50.47935 50.48216,-50.47935 8.87258,0 17.94465,2.56232 25.25793,6.88062 -4.95044,15.64362 -9.76603,23.71267 -24.99946,35.9764 -3.70018,0.15733 -6.51255,3.12423 -6.51255,6.66708 0,3.6721 2.99499,6.66709 6.66708,6.66709 3.67209,0 6.39737,-2.99499 6.39737,-6.83566 m 38.60053,-67.51932 1.35702,-4.15534 87.16095,-0.11239 -23.18448,70.28955 -1.00021,-7.33294 2.66628,0 -0.33434,-4.66668 -11.66529,0 0.33153,4.33234 3.00061,0 0.66586,7.99881 c 0,0 -58.66359,-66.01902 -58.99793,-66.35335 m 93.92918,74.29879 c -0.0701,-1.51436 -0.31186,-3.95024 -0.31186,-5.65565 0,-17.29002 5.59102,-34.09119 20.77388,-48.05751 l -15.8122,-18.9308 -24.47126,74.6556 19.82144,-2.01164 z m 11.74115,-2.55389 42.68282,-6.96771 -26.90153,-34.94249 c -13.94384,12.15697 -15.67734,26.74982 -15.78129,41.9102" style="fill:#000000;fill-opacity:1;fill-rule:evenodd;stroke:none" /><path d="m 255.00262,33.48722 c -122.89573,0 -222.52551,99.62697 -222.52551,222.52551 0,122.89574 99.62978,222.5227 222.52551,222.5227 122.89574,0 222.52551,-99.62696 222.52551,-222.5227 0,-122.89854 -99.62977,-222.52551 -222.52551,-222.52551 M 74.864929,256.01273 c 0,-42.10686 14.446753,-80.83944 38.653911,-111.5114 L 366.51402,397.4937 c -30.67195,24.20716 -69.40454,38.65673 -111.5114,38.65673 -99.4893,0 -180.137691,-80.65121 -180.137691,-180.1377 M 396.4864,367.52413 143.49122,114.52895 c 30.67196,-24.20716 69.40454,-38.65672 111.5114,-38.65672 99.4893,0 180.13769,80.6512 180.13769,180.1405 0,42.10687 -14.44675,80.83945 -38.65391,111.5114" style="fill:#bf2033;fill-opacity:1;fill-rule:nonzero;stroke:none" /></svg>