<svg xmlns="http://www.w3.org/2000/svg" width="511.991" height="512" viewBox="0 0 421.75532 421.76288"><path d="M414.914 194.367l-187.49-187.468c-4.335-4.363-10.363-6.899-16.532-6.899-6.155 0-12.162 2.536-16.546 6.899l-187.497 187.468c-4.356 4.363-6.864 10.348-6.849 16.546.043 6.155 2.507 12.176 6.849 16.532l187.497 187.461c4.342 4.342 10.426 6.849 16.56 6.856 6.127-.006 12.197-2.514 16.532-6.856l187.475-187.454c5.617-5.617 8.011-14.074 6.297-21.809-1.006-4.455-3.471-7.763-6.297-11.276" fill="#ffd033"/><path d="M410.281 222.813l-187.468 187.461c-3.152 3.138-7.466 4.93-11.907 4.93s-8.748-1.792-11.9-4.93l-187.546-187.468c-3.117-3.117-4.887-7.487-4.887-11.9.014-4.413 1.785-8.79 4.894-11.907l187.525-187.518c3.138-3.102 7.501-4.88 11.9-4.88 4.413 0 8.797 1.778 11.921 4.88l187.468 187.525c3.145 3.152 4.923 7.458 4.923 11.9 0 4.448-1.778 8.755-4.923 11.907" fill-rule="evenodd"/><path d="M403.822 216.339c1.424-1.41 2.252-3.442 2.252-5.433 0-1.969-.829-4.059-2.252-5.461l-187.497-187.482c-1.395-1.402-3.442-2.231-5.419-2.231-1.983 0-4.059.829-5.468 2.231l-187.504 187.482c-1.417 1.424-2.203 3.449-2.203 5.454.014 2.005.786 4.002 2.217 5.433l187.49 187.511c1.41 1.402 3.499 2.231 5.468 2.231 1.99 0 4.023-.829 5.433-2.231l187.483-187.504z" fill="#ffd033" fill-rule="evenodd"/><path d="M198.879 138.701c-.021-1.02.135-2.047-.29-3.024-.446-1.013-.864-1.912-1.785-2.592-.843-.616-1.665-1.147-2.727-1.339-1.048-.177-2.21-.375-3.067-1.077-.793-.666-1.459-1.275-2.054-2.132-.552-.772.623-1.7 1.126-2.146.595-.524 1.367-1.424 1.509-2.224.092-.517.049-1.013.248-1.509.177-.46.46-.857.623-1.332.34-.977.05-1.976.297-2.932.227-.914.496-1.771.404-2.748-.191-2.274-1.332-3.655-3.01-5.05-3.032-2.536-9.038-1.388-11 2.033-1.112 1.905-1.636 3.952-1.657 6.169-.021 2.104 1.112 4.037 1.098 6.056-.007.347.113 1.112-.035 1.417-.241.467-.751.149-1.19-.043-.737-.333-2.118-.347-2.89-.128-.9.276-1.842.475-2.812.29-.942-.163-1.827-.871-2.784-.9-3.846-.12-6.297 2.564-6.934 6.198l-8.167-1.438 6.134-26.42 110.688 19.464-2.897 27.511-68.826-12.105zm78.884 66.354c-.071-.489-.212-.942-.319-1.431-.071-.276.51-1.105.63-1.424.864-2.139.722-4.08 0-6.24-.262-.8.184-2.167.418-2.968.191-.708.297-1.417.425-2.118.85-4.817 1.728-9.619 2.408-14.442.567-3.988 1.034-8.195-.312-12.055-.687-2.005-1.87-3.605-3.308-5.128-.432-.46-.722-.524-.694-1.105l.085-1.912c.262-5.688.51-11.383.765-17.07l.73-16.114c.057-1.232.057-2.189-.305-3.393-.602-2.033-2.585-3.442-4.569-3.931-1.381-.347-104.943-18.451-112.869-19.847-2.033-.361-4.186-.737-6.035.567-1.261.871-2.16 1.934-2.614 3.414-.524 1.686-1.048 3.379-1.58 5.079-3.081 9.902-6.155 19.811-9.236 29.728-.12.375-1.792.779-2.175 1.041-.815.581-1.735 1.077-2.472 1.771-1.58 1.48-2.529 3.251-3.492 5.156-.857 1.714-1.339 3.889-1.742 5.773-.453 2.125-.857 4.271-1.31 6.417-.914 4.384-1.516 8.826-2.295 13.224-.064.361-.021.914-.142 1.232-.149.411-.779.885-1.041 1.275-.623.892-.992 1.849-1.19 2.932-.191 1.105-.163 2.139.043 3.237.071.34-.496.758-.673 1.077-.269.496-.482.97-.666 1.523-.404 1.204-.404 2.5-.043 3.719.177.595.453.985.361 1.622-.127.829-.255 1.643-.375 2.472l10.278 1.728-2.684 15.611c0 3.315 3.032 6.474 5.851 7.713.645.283 1.856.595 2.741.751.878.163 2.125.276 2.826.234 3.364-.234 7.48-1.615 8.131-5.256l2.741-15.604 91.287 16.043-2.741 15.611c-.63 3.648 2.762 6.346 5.851 7.713.645.276 1.856.595 2.734.751.885.149 2.125.276 2.826.22 3.088-.205 7.005-2.132 8.138-5.256l2.784-15.512 10.334 1.813c.099-.524.191-1.048.283-1.572.092-.503.064-1.19.425-1.58.701-.73 1.204-1.537 1.53-2.493.347-1.02.418-1.934.255-2.996"/><path d="M246.208 267.72v-32.469h-195.203l41.592 41.585h239.812l9.116-9.116h-95.317zM158.661 112.423l-.786 3.372 7.147 9.895c.786-.446 1.665-.737 2.607-.864l-8.967-12.403z"/></svg>