<svg xmlns="http://www.w3.org/2000/svg" width="511.91" height="512" viewBox="0 0 509.8188 509.90803"><path d="M6.748 238.411l231.574-231.581c9.115-9.107 23.973-9.107 33.087 0l231.574 231.581c9.115 9.107 9.115 23.965 0 33.08l-231.574 231.581c-9.115 9.115-23.973 9.115-33.087 0l-231.574-231.581c-8.994-8.994-9.001-24.079 0-33.08" fill="#fecf33"/><path d="M11.395 242.949l231.468-231.461c6.565-6.565 17.443-6.551 24.008 0l231.46 231.461c6.572 6.572 6.544 17.429 0 24.008l-231.46 231.46c-6.579 6.551-17.429 6.565-24.008 0l-231.468-231.46c-6.537-6.579-6.565-17.436 0-24.008" fill-rule="evenodd"/><path d="M17.911 249.298l231.298-231.298c3.059-3.159 8.258-3.159 11.317 0l231.291 231.298c3.159 3.052 3.159 8.258 0 11.31l-231.291 231.291c-3.059 3.166-8.265 3.173-11.317 0l-231.298-231.291c-3.151-3.052-3.151-8.258 0-11.31" fill="#fecf33" fill-rule="evenodd"/><path d="M307.523 272.609l44.935-7.33-28.321-36.791c-14.681 12.797-16.501 28.165-16.614 44.121m-12.365 2.691c-.071-1.593-.333-4.157-.333-5.949 0-18.208 5.892-35.899 21.876-50.601l-16.65-19.936-25.757 78.603 20.864-2.118zm-98.893-78.228l1.431-4.37 91.761-.127-24.412 74.007-1.055-7.712h2.812l-.347-4.922h-12.28l.354 4.568h3.151l.701 8.42s-61.762-69.51-62.116-69.864m-40.636 71.089c12.323-9.787 21.912-19.114 28.831-37.782 10.913 9.908 17.145 24.227 17.145 38.972 0 29.27-23.873 53.15-53.15 53.15-29.277 0-53.15-23.88-53.15-53.15 0-29.277 23.873-53.15 53.15-53.15 9.341 0 18.895 2.698 26.593 7.245-5.205 16.473-10.283 24.964-26.324 37.874-3.895.17-6.855 3.293-6.855 7.025 0 3.86 3.159 7.018 7.018 7.018 3.867 0 6.742-3.159 6.742-7.202m153.778 15.743c6.006 22.4 27.393 38.597 51.061 38.597 29.27 0 53.143-23.88 53.143-53.15 0-29.277-23.873-53.15-53.143-53.15-9.348 0-20.155 2.203-28.038 6.82l28.845 38.299c3.527.057 6.593 3.208 6.593 7.025 0 3.86-3.151 7.018-7.011 7.018-1.069 0-2.195-.276-3.144-.729l-48.306 9.27zm-130.563-72.767l18.824-51.939-5.963-10.177 11.933-12.981h25.616l.354 7.365h-22.464l-4.554 4.915 5.262 9.476-6.622 23.463h91.938l1.409-4.299c-7.394-.956-20.141-5.51-23.186-8.151-3.038-2.642-.375-5.078 3.088-5.191 18.144-.772 45.105-2.287 50.233-2.316 5.12-.021 5.644 2.564 2.217 6.31-3.428 3.746-6.43 7.124-19.419 9.136l-3.506 9.476 21.756 26.947c10.255-6.218 22.655-9.454 34.709-9.454 36.154 0 65.636 29.482 65.636 65.636 0 36.154-29.482 65.636-65.636 65.636-29.744 0-55.898-20.517-63.582-48.859l-19.985 3.591c-.857 2.358-2.861 4.164-5.248 5.581l3.569 16.912h4.568l.347 4.554-14.391.708v-4.915h3.52l-4.355-16.898c-6.466-1.055-9.851-6.6-7.925-12.096l-65.31-73.858-2.925 7.925c15.857 12.486 25.346 31.72 25.346 51.72 0 36.154-29.496 65.636-65.643 65.636-36.154 0-65.643-29.482-65.643-65.636 0-36.154 29.489-65.636 65.643-65.636 10.51 0 21.281 2.557 30.389 7.422" fill-rule="evenodd"/></svg>