<svg xmlns="http://www.w3.org/2000/svg" width="511.963" height="512" viewBox="0 0 509.94968 509.98681"><path d="M7.293 237.315l229.99-230.011c9.732-9.739 25.654-9.739 35.385 0l229.983 230.011c9.732 9.725 9.732 25.646 0 35.385l-229.983 229.983c-9.732 9.739-25.654 9.739-35.385 0l-229.99-229.983c-9.725-9.739-9.725-25.661 0-35.385" fill="#fecf33"/><path d="M12.841 240.967l228.099-228.113c7.72-7.72 20.349-7.72 28.076 0l228.092 228.113c7.72 7.72 7.72 20.349 0 28.069l-228.092 228.099c-7.727 7.72-20.356 7.72-28.076 0l-228.099-228.099c-7.72-7.72-7.72-20.349 0-28.069" fill-rule="evenodd"/><path d="M19.971 247.994l227.985-228.014c3.853-3.86 10.178-3.86 14.031 0l227.985 228.014c3.86 3.86 3.86 10.171 0 14.024l-227.985 227.992c-3.853 3.86-10.178 3.86-14.031 0l-227.985-227.992c-3.86-3.853-3.86-10.164 0-14.024" fill="#fecf33" fill-rule="evenodd"/><path d="M112.767 233.449c-1.154-2.833-4.625-7.536-1.905-10.461 3.06-4.2 8.216-6.615 11.984-10.107 4.299-3.98 7.586-8.443 11.084-13.089 2.635-4.221 7.444-6.431 11.375-9.179-8.343-.283-20.497 3.216-22.296-8.336.305-3.662 5.992 1.388 8.025 1.721 4.575.73 9.42-.609 13.818-1.735 3.343-.843 7.331-2.529 10.759-1.346 4.108 1.417 4.03 4.837 6.651 7.508 2.514 2.564 9.215-1.834 11.779-2.755 4.632-3.393 4.908 6.204 1.65 8.244-.977.616-7.047 2.351-2.975 3.995 4.228 1.417 8.563 2.564 12.99 3.131 5.992.765 11.616-.028 17.452-1.339 5.319-1.197 9.81-.985 15.15.021 11.559 2.189 22.728 4.285 34.507 4.76 21.914.878 43.899-1.098 65.77-2.351 8.754-.496 17.487-2.486 26.227-2.67 4.15-.085 8.011 1.14 12.104 1.452 4.065.319 8.839-.829 11.871 2.451 13.585 9.902 13.386 27.389 12.685 42.525-.361 7.897-3.513 18.04 2.699 24.251 4.894 4.908 12.777 9.654 7.968 17.969-2.174 3.733 2.67 15.709-1.707 15.745-6.346.057-6.651-7.586-7.026-11.97-.51-6.034-5.185-10.433-7.826-15.547-2.118-4.094-.567-9.824-.446-14.265.142-5.007.014-10.036-.347-15.037-.382-5.326-1.02-10.659-2.111-15.894-.623-2.946-1.749-11.495-4.71-13.146-.538-.305 1.841 10.723 2.132 11.956 2.033 5.475 2.713 11.29 2.564 17.105-.241 9.47-3.449 19.647-2.536 29.039.418 4.335 3.725 6.268 5.893 9.618 2.656 4.094.609 7.812-.758 11.927-3.485 10.376-1.608 20.823-.227 31.376.39 2.89 3.279 9.363.39 11.566-3.938 3.017.17 7.416-2.047 11.332-1.905 3.371-24.69 4.618-23.047-.17 3.102-3.031 7.621-4.455 9.767-8.45 2.089-3.874 2.408-9.668 2.727-13.988.744-10.015-1.976-23.019-9.3-30.47-4.88 8.669-8.535 16.262-10.178 26.156-.623 3.704-.708 8.811-2.571 12.133-1.785 3.194-5.248 1.771-5.964 6.417-.248 1.537-.234 3.081-.305 4.632-2.521.609-5.064 1.069-7.621 1.388-3.421.411-10.029 2.047-13.23.581-2.614-1.218 8.443-10.022 9.717-11.708 4.533-6.07 6.509-13.691 9.916-20.434 1.657-3.329 2.529-9.101 1.133-12.657-1.119-2.847-5.673-.623-6.374 1.431-3.18 9.059-5.702-1.183-11.609-.227-2.224-.425-2.684 3.669-5.121 3.945-1.849.205-2.996-1.409-3.194-3.017-.276-2.238-2.422-3.194-4.15-4.328-2.833-1.856-5.999-3.895-8.351-6.36-2.089-2.196-6.134-.744-8.853-.715-8.223.092-15.816-2.274-23.784-3.697-5.17-.914-12.699-1.466-17.586.885-7.706 3.711-6.672 18.394-6.828 25.392-.099 4.455-.715 9.59.191 13.974.673 3.251 3.605 6.891 1.997 10.305-.744 1.615-3.01.637-3.924 2.203-.694 1.204-.751 3.038-.977 4.384-.899 5.326-8.244 4.065-12.657 4.575-.793.085-13.075 1.884-9.526-1.934 3.081-2.727 6.721-4.788 9.137-8.195 3.995-5.617 4.455-14.342 3.768-20.915-.552-5.185-2.259-10.029-3.775-14.994-3.697 4.901-6.516 12.905-7.288 19.102-.51 4.073.319 11.786-1.679 15.079-.645 1.069-3.038-.043-3.846 1.898-.673 1.615-.283 4.179-1.247 5.617-1.31 1.948-15.554.914-18.139 1.02-.885-5.999 5.588-6.87 9.321-9.873 5.461-4.398 5.928-18.535 4.575-24.832-1.36-6.36-2.741-11.042-2.408-17.686.191-3.903-7.982-1.275-10.78-2.833-4.837-2.727-4.915-8.804-6.346-13.535-2.096-6.969-6.651-13.082-10.943-18.84-6.636-8.91-13.124-22.665-25.377-24.4-5.942-.843-12.196.425-18.181.333-4.951-.092-15.426-.085-17.7-5.659" fill-rule="evenodd"/></svg>