<?xml version="1.0" encoding="UTF-8" standalone="no"?>
<!-- Created with Inkscape (http://www.inkscape.org/) -->

<svg xmlns:dc="http://purl.org/dc/elements/1.1/" xmlns:cc="http://creativecommons.org/ns#" xmlns:rdf="http://www.w3.org/1999/02/22-rdf-syntax-ns#" xmlns:svg="http://www.w3.org/2000/svg" xmlns="http://www.w3.org/2000/svg" version="1.1" width="512" height="512" viewBox="-1 0 512 511.99998" xml:space="preserve"><metadata><rdf:RDF><cc:Work rdf:about=""><dc:format>image/svg+xml</dc:format><dc:type rdf:resource="http://purl.org/dc/dcmitype/StillImage" /><dc:title></dc:title></cc:Work></rdf:RDF></metadata>
<defs></defs>
<path d="m 509.637,478.80551 c 0,17.50603 -14.32413,31.83017 -31.83016,31.83017 l -445.622028,0 c -17.505995,0 -31.83012615,-14.32414 -31.83012615,-31.83017 l 0,-445.622085 c 0,-17.50602 14.32413115,-31.83013 31.83016215,-31.83013 l 445.621992,0 c 17.50603,0 31.83016,14.32411 31.83016,31.83013 l 0,445.622085 z" style="fill:#ffffff;fill-opacity:1;fill-rule:nonzero;stroke:#000000;stroke-width:2.7176218;stroke-miterlimit:4;stroke-opacity:1;stroke-dasharray:none" /><path d="m 477.80687,9.310925 -445.622022,0 c -13.128377,0 -23.8720418,10.74367 -23.8720418,23.87204 l 0,445.622055 c 0,13.13064 10.7436648,23.87204 23.8720418,23.87204 l 445.622022,0 c 13.13065,0 23.87205,-10.7414 23.87205,-23.87204 l 0,-445.622035 c 0,-13.12839 -10.7414,-23.87206 -23.87205,-23.87206 m 10.61005,469.494095 c 0,5.83609 -4.77395,10.61005 -10.61005,10.61005 l -445.622022,0 c -5.836093,0 -10.610048,-4.77396 -10.610048,-10.61005 l 0,-445.622035 c 0,-5.83383 4.773955,-10.61005 10.610048,-10.61005 l 445.622022,0 c 5.8361,0 10.61005,4.77622 10.61005,10.61005 l 0,445.622035 z" style="fill:#000000;fill-opacity:1;fill-rule:nonzero;stroke:none" /><path d="m 196.46056,127.93353 c 1.72116,-1.20481 3.81826,-1.91139 6.07841,-1.91139 5.85874,0 10.61005,4.74904 10.61005,10.61004 0,1.09838 -0.16759,2.15825 -0.47785,3.15471 l -9.4007,31.32738 136.60578,0 0,222.81106 -53.05024,0 0,-169.76075 -83.55554,0 9.4007,31.32736 c 0.31026,0.99646 0.47785,2.0563 0.47785,3.15471 0,5.85872 -4.75131,10.61005 -10.61005,10.61005 -2.26015,0 -4.35725,-0.70658 -6.07841,-1.91145 L 95.845136,197.63832 196.46056,127.93353 z" style="fill:#000000;fill-opacity:1;fill-rule:nonzero;stroke:none" /><path d="m 254.99628,33.183435 c -123.05616,0 -222.810997,99.754825 -222.810997,222.811085 0,123.05392 99.754837,222.81099 222.810997,222.81099 123.0562,0 222.81103,-99.7571 222.81103,-222.81099 0,-123.05626 -99.75483,-222.811085 -222.81103,-222.811085 M 74.625475,255.99452 c 0,-42.16165 14.466806,-80.94218 38.705725,-111.65583 l 253.32085,253.32092 c -30.71139,24.23884 -69.49413,38.7057 -111.65577,38.7057 -99.61668,0 -180.370805,-80.75411 -180.370805,-180.37079 M 396.66139,367.65028 143.34054,114.32936 c 30.71365,-24.238935 69.49411,-38.705735 111.65574,-38.705735 99.61671,0 180.37084,80.754125 180.37084,180.370895 0,42.1616 -14.46681,80.94206 -38.70573,111.65568" style="fill:#bf2033;fill-opacity:1;fill-rule:nonzero;stroke:none" /></svg>