<svg xmlns="http://www.w3.org/2000/svg" width="512" height="511.964" viewBox="0 0 509.95627 509.92007"><path d="M271.495 503.079l231.57-231.584c4.363-4.342 6.891-10.362 6.891-16.531 0-6.155-2.529-12.175-6.891-16.531l-231.57-231.584c-4.37-4.356-10.355-6.863-16.552-6.849-6.155.028-12.168 2.507-16.531 6.849l-231.563 231.584c-4.335 4.321-6.849 10.405-6.849 16.531 0 6.127 2.514 12.218 6.849 16.531l231.563 231.584c5.617 5.617 14.073 8.011 21.801 6.297 4.462-1.013 7.77-3.471 11.283-6.297" fill="#ffd033"/><path d="M243.048 498.448l-231.563-231.57c-3.145-3.159-4.937-7.472-4.937-11.913s1.792-8.74 4.937-11.899l231.563-231.612c3.123-3.109 7.501-4.88 11.906-4.88s8.775 1.771 11.899 4.88l231.619 231.612c3.109 3.13 4.887 7.486 4.887 11.899 0 4.413-1.778 8.783-4.887 11.913l-231.619 231.57c-3.152 3.138-7.458 4.922-11.899 4.922-4.441 0-8.754-1.785-11.906-4.922" fill-rule="evenodd"/><path d="M249.522 491.988c1.409 1.424 3.442 2.252 5.432 2.252 1.969 0 4.058-.829 5.461-2.252l231.577-231.584c1.402-1.41 2.231-3.449 2.231-5.44 0-1.962-.829-4.051-2.231-5.461l-231.577-231.577c-1.431-1.41-3.456-2.196-5.461-2.196-2.004.02-4.002.786-5.432 2.196l-231.605 231.577c-1.402 1.409-2.238 3.499-2.238 5.461 0 1.99.836 4.03 2.238 5.44l231.605 231.584z" fill="#ffd033" fill-rule="evenodd"/><path d="M156.264 282.688l57.838-57.852h81.784l57.901 57.852v81.841l-57.901 57.838h-81.784l-57.838-57.838v-81.841z" fill="#fff" fill-rule="evenodd"/><path d="M161.057 284.749v77.811l55.111 55.047h77.719l55.033-55.047v-77.811l-55.033-55.019h-77.719l-55.111 55.019z" fill="#c4122e" fill-rule="evenodd"/><path d="M285.795 176.655l-62.264.07-.156-57.781-54.749 11.495c-1.778.368-2.5.581-3.088.581-3.676-.02-7.054-3.541-7.047-7.224 0-1.466-.113-2.571 1.629-4.122l94.349-83.966 94.101 84.136c1.487 1.339 1.615 2.656 1.615 4.115-.006 3.839-3.4 7.21-7.224 7.196-.588 0-.701-.12-2.061-.439l-55.259-12.536.156 58.475z" fill-rule="evenodd"/></svg>