<?xml version="1.0" encoding="UTF-8" standalone="no"?>
<!-- Created with Inkscape (http://www.inkscape.org/) -->

<svg xmlns:dc="http://purl.org/dc/elements/1.1/" xmlns:cc="http://creativecommons.org/ns#" xmlns:rdf="http://www.w3.org/1999/02/22-rdf-syntax-ns#" xmlns:svg="http://www.w3.org/2000/svg" xmlns="http://www.w3.org/2000/svg" version="1.1" width="427.125" height="512" viewBox="-1 0 427.12501 511.99998" xml:space="preserve"><metadata><rdf:RDF><cc:Work rdf:about=""><dc:format>image/svg+xml</dc:format><dc:type rdf:resource="http://purl.org/dc/dcmitype/StillImage" /><dc:title></dc:title></cc:Work></rdf:RDF></metadata>
<defs></defs>
<path d="m 0.35205307,484.13543 c 0,14.58863 11.93637493,26.52503 26.52502793,26.52503 l 371.361659,0 c 14.5909,0 26.52728,-11.93636 26.52728,-26.52503 l 0,-456.243599 c 0,-14.5909 -11.93638,-26.5272798 -26.52728,-26.5272798 l -371.361659,0 c -14.588653,0 -26.52502793,11.9363798 -26.52502793,26.5272798 l 0,456.243599 z" style="fill:#ffffff;fill-opacity:1;fill-rule:nonzero;stroke:#000000;stroke-width:2.70410609;stroke-miterlimit:4;stroke-opacity:1;stroke-dasharray:none" /><path d="m 26.877784,8.4384812 371.361656,0 c 10.69925,0 19.45154,8.7545198 19.45154,19.4515298 l 0,456.245869 c 0,10.69925 -8.75229,19.45154 -19.45154,19.45154 l -371.361656,0 c -10.699247,0 -19.4515369,-8.75229 -19.4515369,-19.45154 l 0,-456.245869 c 0,-10.69699 8.7522899,-19.4515298 19.4515369,-19.4515298 M 18.035357,484.13583 c 0,4.86288 3.979543,8.8424 8.842427,8.8424 l 371.361656,0 c 4.86289,0 8.84243,-3.97952 8.84243,-8.8424 l 0,-456.245819 c 0,-4.86288 -3.97954,-8.84242 -8.84243,-8.84242 l -371.361656,0 c -4.862884,0 -8.842427,3.97954 -8.842427,8.84242 l 0,456.245819 z" style="fill:#000000;fill-opacity:1;fill-rule:nonzero;stroke:none" /><path d="m 192.41029,105.53215 0.0451,-0.13521 18.75748,-26.851749 c 0.59716,-0.84278 1.07939,-1.78697 1.4174,-2.81678 1.83429,-5.56595 -1.19431,-11.56456 -6.76026,-13.39659 -2.2061,-0.7256 -4.48206,-0.68955 -6.53718,-0.0316 L 81.697455,96.858711 155.79222,194.54236 c 1.26417,1.75091 3.07141,3.13226 5.27751,3.85786 5.56595,1.83428 11.56456,-1.19432 13.39659,-6.76027 0.34027,-1.02981 0.51153,-2.0754 0.53406,-3.10521 l 0.84504,-32.08879 c 51.82419,7.87345 91.53399,52.61971 91.53399,106.64098 l 0,74.27278 53.05006,0 0,-74.27278 c 0,-77.59884 -54.92491,-142.36673 -128.01915,-157.5548" style="fill:#000000;fill-opacity:1;fill-rule:nonzero;stroke:none" /><path d="m 121.12643,449.56139 c -4.90345,6.41324 -11.56907,9.55677 -20.49713,9.55677 -11.947638,0 -19.239711,-4.77726 -24.39554,-15.21507 -3.522098,-7.16814 -6.036917,-18.48707 -6.036917,-28.54638 0,-14.08389 3.522099,-26.6602 9.306632,-34.58102 4.903446,-6.66562 11.945389,-9.55679 21.754535,-9.55679 23.51446,0 29.17505,25.15044 29.17505,44.13779 0,13.32899 -3.39591,26.66023 -9.30663,34.20469 m -19.86842,-64.63715 c -7.544457,0 -11.066555,3.0196 -14.083887,10.43785 -2.012306,5.02958 -3.269715,12.82649 -3.269715,19.99461 0,8.92804 1.886114,18.10848 5.155829,23.51669 2.641011,4.40091 6.160855,6.53716 11.569063,6.53716 6.28705,0 10.18547,-3.26746 13.07886,-10.68796 1.75993,-4.52713 3.26747,-12.8265 3.26747,-19.36593 0,-9.80914 -2.13625,-30.43246 -15.71762,-30.43246" style="fill:#000000;fill-opacity:1;fill-rule:nonzero;stroke:none" /><path d="m 199.47926,457.60945 -32.44477,-57.46902 0,57.46902 -13.45518,0 0,-84.88191 13.45518,0 30.93497,54.1993 0,-54.1993 13.33125,0 0,84.88191 -11.82145,0 z" style="fill:#000000;fill-opacity:1;fill-rule:nonzero;stroke:none" /><path d="m 237.01519,457.60945 0,-84.88191 13.45518,0 0,72.43175 39.23433,0 0,12.45016 -52.68951,0 z" style="fill:#000000;fill-opacity:1;fill-rule:nonzero;stroke:none" /><path d="m 332.56929,420.63828 0,36.97183 -13.45519,0 0,-36.97185 -29.80375,-47.91229 16.09619,0 20.24699,32.69713 20.62332,-32.69713 15.71762,0 -29.42518,47.91223 z" style="fill:#000000;fill-opacity:1;fill-rule:nonzero;stroke:none" /></svg>