<svg xmlns="http://www.w3.org/2000/svg" width="512" height="511.933" viewBox="0 -0.321 511.99994 511.93331"><path d="M242.285 506.017l-236.615-236.615c-7.56-7.56-7.56-19.883 0-27.442l236.603-236.603c7.56-7.565 19.895-7.571 27.454-.012l236.603 236.627c7.56 7.56 7.56 19.877 0 27.437l-236.603 236.609c-7.466 7.454-19.971 7.466-27.442 0" fill="#f4911d"/><path d="M246.05 502.164l-236.527-236.521c-5.439-5.451-5.427-14.467 0-19.918l236.515-236.515c5.451-5.445 14.455-5.433 19.924 0l236.503 236.527c5.439 5.451 5.451 14.45 0 19.906l-236.503 236.521c-5.457 5.416-14.467 5.433-19.912 0" fill-rule="evenodd"/><path d="M251.313 496.76l-236.386-236.386c-2.614-2.532-2.614-6.849 0-9.38l236.386-236.38c2.526-2.614 6.837-2.614 9.375 0l236.386 236.38c2.614 2.537 2.614 6.855-.009 9.392l-236.365 236.374c-2.537 2.614-6.849 2.614-9.386 0" fill="#f4911d" fill-rule="evenodd"/><path d="M289.534 117.805c16.764 0 30.438 13.662 30.438 30.426 0 16.758-13.674 30.432-30.438 30.432-16.758 0-30.45-13.674-30.45-30.432 0-16.764 13.692-30.426 30.45-30.426" fill-rule="evenodd"/><path d="M111.779 186.925h62.304v77.576h-62.304v-77.576zM179.658 186.928h144.237l53.44 10.726 8.658-25.181 14.238 2.89-11.348 46.221-64.612-4.752 12.288 191.052-14.027-.153-26.914-109.811-18.162 109.723h-13.416l-1.445-190.394-82.938-16.088v-14.232z" fill-rule="evenodd"/></svg>