<svg xmlns="http://www.w3.org/2000/svg" width="409.25" height="512" viewBox="-0.603 0 409.25 512"><path d="M366.69.912h-325.386c-22.612 0-41.015 18.41-41.015 41.037v428.15c0 22.614 18.403 41.017 41.015 41.017h325.386c22.634 0 41.046-18.403 41.046-41.017v-428.148c0-22.628-18.412-41.039-41.046-41.039z" fill="#fff" stroke="#000" stroke-width="1.796"/><path d="M41.465 503.979h325.072c18.919 0 34.243-15.296 34.243-34.214v-428.216c0-18.915-15.323-34.229-34.243-34.229h-325.072c-18.919 0-34.223 15.314-34.223 34.229v428.216c0 18.892 15.326 34.214 34.223 34.214" fill-rule="evenodd"/><path d="M41.487 491.186h325.029c11.832 0 21.385-9.567 21.385-21.365v-428.243c0-11.823-9.553-21.376-21.385-21.376h-325.029c-11.805 0-21.367 9.553-21.367 21.376v428.243c0 11.818 9.547 21.365 21.367 21.365" fill="#fff" fill-rule="evenodd"/><path d="M316.628 176.351v57.692c0 15.24-1.922 30.437-5.603 45.211-4.925 19.623-12.779 38.535-23.372 55.776-6.447 10.482-13.895 20.271-20.753 30.494-3.778 5.646-7.108 11.575-9.966 17.735-7.498 16.23-11.595 33.887-11.595 51.768v44.306h-71.278v-44.306c0-31.441 6.912-62.939 21.135-91.035 3.77-7.485 8.258-14.62 13.415-21.254 3.589-4.62 7.268-9.199 11.017-13.7 4.823-5.811 9.407-11.581 12.788-18.355 8.876-17.812 12.062-37.929 12.186-57.678l.251-56.417-41.601 13.63c-1.297.433-2.619.675-3.986.704-5.261.133-9.973-2.014-12.948-6.433-2.883-4.286-3.038-9.88-.862-14.494.639-1.317 1.644-2.355 2.466-3.541l92.067-132.94 93.866 133.163c.717 1.038 2.827 3.679 3.33 5.421.447 1.464.641 2.969.614 4.489-.063 6.934-4.864 12.948-11.735 14.362-2.619.551-5.308.104-7.832-.731l-41.606-13.868M173.426 78.308c-.34 14.15-.668 28.321-1.602 42.442-1.527 23.101-4.663 46.11-9.443 68.745-3.505 16.53-7.902 32.849-12.536 49.099-3.945 13.81-8.662 27.462-14.802 40.48-.997 2.103-2.159 4.139-3.478 6.07-4.223 6.194-9.136 10.543-16.145 13.372-8.8 3.526-18.885 3.4-27.645-.278-9.095-3.826-15.552-11.08-19.294-20.153-3.338-8.091-6.334-16.328-8.969-24.69-3.742-11.902-7.135-23.929-10.165-36.034-7.967-31.951-14.46-64.312-16.844-97.195-1.004-13.923-1.338-27.909-1.644-41.856h142.568" fill-rule="evenodd"/></svg>