<svg xmlns="http://www.w3.org/2000/svg" width="511.963" height="512" viewBox="0 0 509.94968 509.98681"><path d="M7.293 237.315l229.99-230.011c9.732-9.739 25.654-9.739 35.385 0l229.983 230.011c9.732 9.725 9.732 25.646 0 35.385l-229.983 229.983c-9.732 9.739-25.654 9.739-35.385 0l-229.99-229.983c-9.725-9.739-9.725-25.661 0-35.385" fill="#fecf33"/><path d="M12.841 240.967l228.099-228.113c7.72-7.72 20.349-7.72 28.076 0l228.092 228.113c7.72 7.72 7.72 20.349 0 28.069l-228.092 228.099c-7.727 7.72-20.356 7.72-28.076 0l-228.099-228.099c-7.72-7.72-7.72-20.349 0-28.069" fill-rule="evenodd"/><path d="M19.971 247.994l227.985-228.014c3.853-3.86 10.178-3.86 14.031 0l227.985 228.014c3.86 3.86 3.86 10.171 0 14.024l-227.985 227.992c-3.853 3.86-10.178 3.86-14.031 0l-227.985-227.992c-3.86-3.853-3.86-10.164 0-14.024" fill="#fecf33" fill-rule="evenodd"/><path d="M230.737 86.6c13.117 0 23.812 10.695 23.812 23.805 0 13.117-10.695 23.826-23.812 23.826s-23.805-10.709-23.805-23.826c0-13.11 10.688-23.805 23.805-23.805" fill-rule="evenodd"/><path d="M158.645 236.762l49.947-33.296c2.309-9.753 11.885-53.078 31.1-63.107 19.024-12.607 89.193 39.104 89.596 39.522v75.403l-15.221-2.642-5.942-60.189c-5.737-1.162-11.474-2.309-17.197-3.456 12.522 32.382 17.126 63.589 9.916 84.15l30.427 124.344-20.504 14.541-44.309-115.08-20.504 21.829-28.437 86.643-27.127-9.923 24.478-91.275 28.437-50.918-10.9-37.602-11.587 15.107-54.232 17.863-7.94-11.913z" fill-rule="evenodd"/></svg>