<svg xmlns="http://www.w3.org/2000/svg" width="511.997" height="511.997" viewBox="0 0 1444.9687 1444.9687"><path d="M133.428 5.882h1178.121c70.183 0 127.557 57.374 127.557 127.483v1178.22c0 70.134-57.374 127.508-127.557 127.508h-1178.121c-70.134 0-127.557-57.374-127.557-127.508v-1178.22c0-70.11 57.423-127.483 127.557-127.483z" fill="#fff" stroke="#000" stroke-width="11.743"/><path d="M133.428 37.732h1178.122c52.686 0 95.729 43.018 95.729 95.631v1178.22c0 52.613-43.042 95.68-95.729 95.68h-1178.122c-52.686 0-95.68-43.067-95.68-95.68v-1178.22c0-52.613 42.993-95.631 95.68-95.631" fill="#00674c" fill-rule="evenodd"/><path d="M139.735 885.702c171.507-102.257 342.941-204.464 514.424-306.72 0-120.637-.098-278.868 0-379.309.098-49.423 33.178-74.036 66.821-74.502 34.797-.466 70.159 24.76 70.404 74.993.589 98.944 0 256.758-.908 378.818l512.804 306.72v124.956c-170.918-52.981-341.886-106.011-512.804-159.017v274.255c38.38 31.386 76.834 62.723 115.213 94.134v100.588c-61.152-17.865-122.256-35.705-183.409-53.545-60.539 18.38-121.127 36.76-181.716 55.165v-102.207c37.865-31.411 75.729-62.748 113.594-94.134v-274.255c-170.918 53.545-341.861 107.091-512.78 160.661-.589-42.184-1.104-84.416-1.644-126.6" fill="#fff" fill-rule="evenodd"/></svg>