<svg xmlns="http://www.w3.org/2000/svg" width="512" height="511.955" viewBox="0 0 509.9475 509.90257"><path d="M271.49 503.049l231.566-231.559c4.349-4.349 6.891-10.369 6.891-16.531 0-6.176-2.543-12.182-6.891-16.552l-231.566-231.559c-4.363-4.37-10.355-6.863-16.545-6.849-6.162 0-12.189 2.479-16.531 6.849l-231.58 231.559c-4.335 4.342-6.835 10.419-6.835 16.552 0 6.126 2.5 12.196 6.835 16.531l231.58 231.559c5.609 5.617 14.052 8.025 21.786 6.311 4.554-1.041 7.72-3.421 11.29-6.311" fill="#fecf33"/><path d="M242.565 498.94l-231.608-231.608c-3.223-3.223-5.085-7.798-5.085-12.373 0-4.561 1.863-9.2 5.085-12.423l231.608-231.58c3.265-3.251 7.748-5.078 12.366-5.078 4.639 0 9.172 1.827 12.444 5.078l231.559 231.58c3.251 3.251 5.128 7.812 5.128 12.423 0 4.604-1.877 9.122-5.128 12.373l-231.559 231.608c-3.244 3.223-7.876 5.078-12.444 5.078-4.554 0-9.129-1.856-12.366-5.078" fill-rule="evenodd"/><path d="M249.441 492.025c1.424 1.409 3.499 2.252 5.51 2.266 2.019 0 4.08-.843 5.496-2.266l231.601-231.566c1.466-1.445 2.238-3.463 2.238-5.496 0-2.061-.772-4.058-2.238-5.51l-231.601-231.559c-1.417-1.431-3.478-2.295-5.496-2.281-2.011 0-4.087.85-5.51 2.281l-231.552 231.559c-1.452 1.438-2.274 3.47-2.288 5.51-.014 2.075.822 4.023 2.288 5.496l231.552 231.566z" fill="#fecf33" fill-rule="evenodd"/><path d="M282.481 311.75l-.163 79.608-54.621-.135v-193.985l-30.229 9.356c-1.105.347-2.196.63-3.35.694-3.017.17-6.084-1.098-8.216-3.244-2.458-2.507-3.47-6.091-2.925-9.547.283-1.756 1.098-3.23 2.139-4.639l69.799-94.794 69.99 94.794c1.438 1.941 2.252 4.242 2.252 6.665 0 4.427-2.578 8.308-6.636 10.071-2.203.949-4.214 1.034-6.481.538-.595-.135-1.19-.467-1.487-.538l-30.937-6.665c2.436 10.723 4.866 21.489 7.94 32.056 4.547 15.645 10.461 30.88 17.303 45.669 6.778 14.611 14.484 28.798 23.351 42.241 5.879 8.91 12.288 17.501 18.663 26.05l-30.073 21.722c-2.691-3.52-5.383-7.033-7.996-10.617-6.027-8.23-11.651-16.779-16.984-25.476-3.98-6.488-7.678-13.131-11.339-19.824" fill-rule="evenodd"/></svg>