<svg xmlns="http://www.w3.org/2000/svg" width="427.125" height="512"><path d="M425.757 484.105c0 14.588-11.936 26.524-26.524 26.524h-371.342c-14.59 0-26.527-11.936-26.527-26.524v-456.22c0-14.588 11.936-26.524 26.527-26.524h371.342c14.588 0 26.524 11.936 26.524 26.524v456.22z" fill="#fff" stroke="#000" stroke-width="2.731"/><path d="M418.684 27.885v456.22c0 10.698-8.752 19.452-19.452 19.452h-371.342c-10.698 0-19.452-8.754-19.452-19.452v-456.22c0-10.698 8.754-19.452 19.452-19.452h371.342c10.7 0 19.452 8.754 19.452 19.452m-10.609 0c0-4.862-3.979-8.841-8.843-8.841h-371.342c-4.862 0-8.841 3.979-8.841 8.841v456.22c0 4.864 3.979 8.843 8.841 8.843h371.342c4.864 0 8.843-3.979 8.843-8.843v-456.22zM357.738 133.768l-64.602-95.274-64.602 95.274c-1.083 1.568-1.716 3.471-1.716 5.52 0 5.374 4.359 9.733 9.733 9.733 1.047 0 2.055-.166 3-.471l28.83-9.262v133.325c-29.775-37.625-71.067-65.713-118.557-78.94l19.81-22.561c.658-.744 1.211-1.605 1.627-2.563 2.142-4.93-.121-10.664-5.051-12.806-1.878-.815-3.876-.992-5.745-.624l-113.124 21.303 61.655 97.209c1.008 1.616 2.499 2.957 4.379 3.772 4.93 2.142 10.664-.121 12.803-5.049.419-.961.669-1.951.765-2.941l2.95-29.745c79.416 18.883 138.487 90.28 138.487 175.475v42.439h49.511v-318.293l28.83 9.262c.945.305 1.953.471 3 .471 5.374 0 9.733-4.359 9.733-9.733 0-2.049-.635-3.951-1.716-5.52"/></svg>