<svg xmlns="http://www.w3.org/2000/svg" width="512" height="512" viewBox="0 0 462.36864 462.3686"><path d="M42.532 1.7h377.296c22.46 0 40.84 18.38 40.84 40.833v377.304c0 22.46-18.38 40.833-40.84 40.833h-377.296c-22.46 0-40.833-18.373-40.833-40.833v-377.303c0-22.453 18.373-40.833 40.833-40.833" fill="#fff" stroke="#000" stroke-width="3.4"/><path d="M42.532 11.898h377.296c16.857 0 30.648 13.79 30.648 30.633v377.304c0 16.857-13.79 30.64-30.648 30.64h-377.296c-16.843 0-30.626-13.783-30.626-30.64v-377.304c0-16.843 13.783-30.633 30.626-30.633" fill="#155196" fill-rule="evenodd"/><path d="M258.94 39.78c-6.969.34-13.819 1.147-20.583 2.918-7.805 2.047-15.171 5.114-21.999 9.406-5.624 3.527-10.681 7.614-15.462 12.176l-18.118 72.982c-6.828 27.566-11.099 55.749-12.267 84.144-.446 11.085-.368 22.191.12 33.289.623 14.527 1.764 29.018 3.577 43.446.588 4.66 1.48 9.278 2.706 13.811l24.507 91.064c5.645 3.69 11.432 7.069 17.565 9.902 7.125 3.286 14.577 5.865 22.254 7.607 6.382 1.466 12.806 2.309 19.308 2.741l-23.423-102.276c-4.165-.935-8.145-2.543-11.503-5.241-2.741-2.21-7.678-7.281-7.678-11.248v-136.366c0-7.324 4.462-13.549 10.164-17.806 3.485-2.585 7.423-4.2 11.658-5.086l19.173-105.464zM286.995 417.99c2.005-.637 3.421-2.118 4.533-3.874.864-1.339 1.289-2.777 1.261-4.356-.028-1.31-.191-2.706-.503-3.973l-20.717-86.057c-.623-2.564-.666-3.768-3.18-5.312-1.537-.97-3.527-1.608-5.312-1.077l-16.446 4.781 23.366 103.566 16.999-3.697zM249.831 145.304l14.916 3.173c.878.112 1.75.199 2.628.276 1.261.129 2.592-.042 3.683-.765 1.962-1.317 2.805-3.081 3.265-5.333l18.09-87.296c.283-1.346.361-2.677-.149-3.973-.496-1.268-1.19-2.522-2.075-3.563-1.282-1.551-3.223-2.769-5.213-3.102l-15.986-2.642-19.159 103.225z" fill="#fff" fill-rule="evenodd"/></svg>